<svg xmlns="http://www.w3.org/2000/svg" width="1200" height="1200" viewBox="0 0 1200 1200">

  <defs>
    <linearGradient id="bg" x1="0%" y1="0%" x2="100%" y2="100%">
      <stop offset="0%" stop-color="#090b10" />
      <stop offset="100%" stop-color="#151922" />
    </linearGradient>
    <linearGradient id="oxide" x1="0%" y1="0%" x2="100%" y2="100%">
      <stop offset="0%" stop-color="#f8f9fa" stop-opacity="0.4792" />
      <stop offset="35%" stop-color="#ced4da" stop-opacity="0.5361" />
      <stop offset="70%" stop-color="#adb5bd" stop-opacity="0.6146" />
      <stop offset="100%" stop-color="#ffcad4" stop-opacity="0.7431" />
    </linearGradient>
    <filter id="softGlow">
      <feGaussianBlur stdDeviation="4" result="blur" />
      <feMerge>
        <feMergeNode in="blur" />
        <feMergeNode in="SourceGraphic" />
      </feMerge>
    </filter>
  </defs>
  <rect width="100%" height="100%" fill="url(#bg)" />
  <g filter="url(#softGlow)">
  <g id="bismuth-crystal" class="bismuth-crystal hopper-crystal bismuth-growth"><g class="hopper-tower"><g class="hopper-step"><g class="iso-cuboid growth-terrace" opacity="1.000"><polygon class="left-face" points="514.93,820.06 588.82,780.36 588.82,754.92 514.93,794.61" fill="#7f868e" stroke="#dcdff5" stroke-width="2.06" /><polygon class="right-face" points="685.33,820.06 759.22,780.36 759.22,754.92 685.33,794.61" fill="#747c84" stroke="#dcdff5" stroke-width="2.06" /><polygon class="top-face" points="514.93,794.61 685.33,794.61 759.22,754.92 588.82,754.92" fill="#f6f9fc" stroke="#dcdff5" stroke-width="2.06" /><polygon class="oxide-band" points="519.00,795.22 681.26,795.22 756.37,755.12 591.67,755.12" fill="none" stroke="#ffd4c1" stroke-width="1.71" stroke-opacity="0.501" /></g><g class="iso-cuboid hopper-recess" opacity="0.980"><polygon class="left-face" points="533.15,810.11 603.54,772.30 603.54,760.08 533.15,797.90" fill="#5d656e" stroke="#dcdff5" stroke-width="1.81" /><polygon class="right-face" points="678.93,810.11 749.33,772.30 749.33,760.08 678.93,797.90" fill="#4e565d" stroke="#dcdff5" stroke-width="1.81" /><polygon class="top-face" points="533.15,797.90 678.93,797.90 749.33,760.08 603.54,760.08" fill="#4d515e" stroke="#dcdff5" stroke-width="1.81" /><polygon class="oxide-band" points="537.15,798.50 674.93,798.50 746.53,760.28 606.34,760.28" fill="none" stroke="#ffd4c1" stroke-width="1.46" stroke-opacity="0.501" /></g></g><g class="hopper-step"><g class="iso-cuboid growth-terrace" opacity="1.000"><polygon class="left-face" points="526.68,799.83 599.09,760.93 599.09,735.49 526.68,774.39" fill="#7f868e" stroke="#dcdff5" stroke-width="2.06" /><polygon class="right-face" points="684.08,799.83 756.49,760.93 756.49,735.49 684.08,774.39" fill="#747c84" stroke="#dcdff5" stroke-width="2.06" /><polygon class="top-face" points="526.68,774.39 684.08,774.39 756.49,735.49 599.09,735.49" fill="#f6f9fc" stroke="#dcdff5" stroke-width="2.06" /><polygon class="oxide-band" points="530.75,775.00 680.01,775.00 753.64,735.69 601.94,735.69" fill="none" stroke="#ffd4c1" stroke-width="1.71" stroke-opacity="0.501" /></g><g class="iso-cuboid hopper-recess" opacity="0.980"><polygon class="left-face" points="546.10,789.23 614.35,752.56 614.35,740.35 546.10,777.01" fill="#5d656e" stroke="#dcdff5" stroke-width="1.81" /><polygon class="right-face" points="676.48,789.23 744.74,752.56 744.74,740.35 676.48,777.01" fill="#4e565d" stroke="#dcdff5" stroke-width="1.81" /><polygon class="top-face" points="546.10,777.01 676.48,777.01 744.74,740.35 614.35,740.35" fill="#4d515e" stroke="#dcdff5" stroke-width="1.81" /><polygon class="oxide-band" points="550.10,777.61 672.48,777.61 741.94,740.55 617.15,740.55" fill="none" stroke="#ffd4c1" stroke-width="1.46" stroke-opacity="0.501" /></g></g><g class="hopper-step"><g class="iso-cuboid growth-terrace" opacity="1.000"><polygon class="left-face" points="540.99,780.71 611.92,742.60 611.92,717.16 540.99,755.26" fill="#7f868e" stroke="#dcdff5" stroke-width="2.06" /><polygon class="right-face" points="685.39,780.71 756.32,742.60 756.32,717.16 685.39,755.26" fill="#747c84" stroke="#dcdff5" stroke-width="2.06" /><polygon class="top-face" points="540.99,755.26 685.39,755.26 756.32,717.16 611.92,717.16" fill="#f6f9fc" stroke="#dcdff5" stroke-width="2.06" /><polygon class="oxide-band" points="545.06,755.87 681.32,755.87 753.47,717.36 614.77,717.36" fill="none" stroke="#ffd4c1" stroke-width="1.71" stroke-opacity="0.501" /></g><g class="iso-cuboid hopper-recess" opacity="0.980"><polygon class="left-face" points="561.61,769.44 627.61,733.98 627.61,721.77 561.61,757.23" fill="#5d656e" stroke="#dcdff5" stroke-width="1.81" /><polygon class="right-face" points="676.59,769.44 742.60,733.98 742.60,721.77 676.59,757.23" fill="#4e565d" stroke="#dcdff5" stroke-width="1.81" /><polygon class="top-face" points="561.61,757.23 676.59,757.23 742.60,721.77 627.61,721.77" fill="#4d515e" stroke="#dcdff5" stroke-width="1.81" /><polygon class="oxide-band" points="565.61,757.83 672.59,757.83 739.80,721.97 630.41,721.97" fill="none" stroke="#ffd4c1" stroke-width="1.46" stroke-opacity="0.501" /></g></g><g class="hopper-step"><g class="iso-cuboid growth-terrace" opacity="1.000"><polygon class="left-face" points="545.17,757.24 614.62,719.93 614.62,694.48 545.17,731.79" fill="#7f868e" stroke="#dcdff5" stroke-width="2.06" /><polygon class="right-face" points="676.57,757.24 746.02,719.93 746.02,694.48 676.57,731.79" fill="#747c84" stroke="#dcdff5" stroke-width="2.06" /><polygon class="top-face" points="545.17,731.79 676.57,731.79 746.02,694.48 614.62,694.48" fill="#f6f9fc" stroke="#dcdff5" stroke-width="2.06" /><polygon class="oxide-band" points="549.24,732.40 672.49,732.40 743.17,694.69 617.47,694.69" fill="none" stroke="#ffd4c1" stroke-width="1.71" stroke-opacity="0.501" /></g><g class="iso-cuboid hopper-recess" opacity="0.980"><polygon class="left-face" points="566.98,745.31 630.58,711.15 630.58,698.94 566.98,733.10" fill="#5d656e" stroke="#dcdff5" stroke-width="1.81" /><polygon class="right-face" points="666.57,745.31 730.17,711.15 730.17,698.94 666.57,733.10" fill="#4e565d" stroke="#dcdff5" stroke-width="1.81" /><polygon class="top-face" points="566.98,733.10 666.57,733.10 730.17,698.94 630.58,698.94" fill="#4d515e" stroke="#dcdff5" stroke-width="1.81" /><polygon class="oxide-band" points="570.98,733.70 662.57,733.70 727.37,699.14 633.38,699.14" fill="none" stroke="#ffd4c1" stroke-width="1.46" stroke-opacity="0.501" /></g></g><g class="hopper-step"><g class="iso-cuboid growth-terrace" opacity="1.000"><polygon class="left-face" points="562.64,739.47 630.62,702.95 630.62,677.51 562.64,714.03" fill="#7f868e" stroke="#dcdff5" stroke-width="2.06" /><polygon class="right-face" points="681.04,739.47 749.02,702.95 749.02,677.51 681.04,714.03" fill="#747c84" stroke="#dcdff5" stroke-width="2.06" /><polygon class="top-face" points="562.64,714.03 681.04,714.03 749.02,677.51 630.62,677.51" fill="#f6f9fc" stroke="#dcdff5" stroke-width="2.06" /><polygon class="oxide-band" points="566.71,714.64 676.97,714.64 746.17,677.71 633.47,677.71" fill="none" stroke="#ffd4c1" stroke-width="1.71" stroke-opacity="0.501" /></g><g class="iso-cuboid hopper-recess" opacity="0.980"><polygon class="left-face" points="585.66,726.89 646.65,694.12 646.65,681.91 585.66,714.67" fill="#5d656e" stroke="#dcdff5" stroke-width="1.81" /><polygon class="right-face" points="669.85,726.89 730.83,694.12 730.83,681.91 669.85,714.67" fill="#4e565d" stroke="#dcdff5" stroke-width="1.81" /><polygon class="top-face" points="585.66,714.67 669.85,714.67 730.83,681.91 646.65,681.91" fill="#4d515e" stroke="#dcdff5" stroke-width="1.81" /><polygon class="oxide-band" points="589.66,715.27 665.85,715.27 728.03,682.11 649.45,682.11" fill="none" stroke="#ffd4c1" stroke-width="1.46" stroke-opacity="0.501" /></g></g></g><g class="side-growth side-growth-east"><g class="iso-cuboid side-growth" opacity="0.960"><polygon class="left-face" points="721.59,790.51 764.57,767.41 764.57,739.41 721.59,762.51" fill="#717880" stroke="#dcdff5" stroke-width="1.86" /><polygon class="right-face" points="769.51,790.51 812.50,767.41 812.50,739.41 769.51,762.51" fill="#616971" stroke="#dcdff5" stroke-width="1.86" /><polygon class="top-face" points="721.59,762.51 769.51,762.51 812.50,739.41 764.57,739.41" fill="#f7f5f5" stroke="#dcdff5" stroke-width="1.86" /><polygon class="oxide-band" points="726.07,763.18 765.03,763.18 809.36,739.64 767.71,739.64" fill="none" stroke="#ffd4c1" stroke-width="1.51" stroke-opacity="0.501" /></g><g class="iso-cuboid side-growth" opacity="0.960"><polygon class="left-face" points="760.33,783.91 801.17,761.97 801.17,736.57 760.33,758.51" fill="#717880" stroke="#dcdff5" stroke-width="1.86" /><polygon class="right-face" points="804.26,783.91 845.09,761.97 845.09,736.57 804.26,758.51" fill="#616971" stroke="#dcdff5" stroke-width="1.86" /><polygon class="top-face" points="760.33,758.51 804.26,758.51 845.09,736.57 801.17,736.57" fill="#f8f2f0" stroke="#dcdff5" stroke-width="1.86" /><polygon class="oxide-band" points="764.40,759.12 800.19,759.12 842.25,736.78 804.01,736.78" fill="none" stroke="#ffd4c1" stroke-width="1.51" stroke-opacity="0.501" /></g><g class="iso-cuboid side-growth" opacity="0.960"><polygon class="left-face" points="798.09,772.86 836.78,752.08 836.78,729.28 798.09,750.06" fill="#717880" stroke="#dcdff5" stroke-width="1.86" /><polygon class="right-face" points="838.01,772.86 876.70,752.08 876.70,729.28 838.01,750.06" fill="#616971" stroke="#dcdff5" stroke-width="1.86" /><polygon class="top-face" points="798.09,750.06 838.01,750.06 876.70,729.28 836.78,729.28" fill="#f9efeb" stroke="#dcdff5" stroke-width="1.86" /><polygon class="oxide-band" points="802.09,750.66 834.01,750.66 873.90,729.48 839.58,729.48" fill="none" stroke="#ffd4c1" stroke-width="1.51" stroke-opacity="0.501" /></g><g class="iso-cuboid side-growth" opacity="0.960"><polygon class="left-face" points="839.41,763.07 875.95,743.44 875.95,723.24 839.41,742.87" fill="#717880" stroke="#dcdff5" stroke-width="1.86" /><polygon class="right-face" points="875.34,763.07 911.88,743.44 911.88,723.24 875.34,742.87" fill="#616971" stroke="#dcdff5" stroke-width="1.86" /><polygon class="top-face" points="839.41,742.87 875.34,742.87 911.88,723.24 875.95,723.24" fill="#f9ece7" stroke="#dcdff5" stroke-width="1.86" /><polygon class="oxide-band" points="843.41,743.47 871.34,743.47 909.08,723.44 878.75,723.44" fill="none" stroke="#ffd4c1" stroke-width="1.51" stroke-opacity="0.501" /></g><g class="iso-cuboid side-growth" opacity="0.960"><polygon class="left-face" points="875.18,755.08 909.57,736.61 909.57,719.01 875.18,737.48" fill="#717880" stroke="#dcdff5" stroke-width="1.86" /><polygon class="right-face" points="907.10,755.08 941.49,736.61 941.49,719.01 907.10,737.48" fill="#616971" stroke="#dcdff5" stroke-width="1.86" /><polygon class="top-face" points="875.18,737.48 907.10,737.48 941.49,719.01 909.57,719.01" fill="#fae9e2" stroke="#dcdff5" stroke-width="1.86" /><polygon class="oxide-band" points="879.18,738.08 903.10,738.08 938.69,719.21 912.37,719.21" fill="none" stroke="#ffd4c1" stroke-width="1.51" stroke-opacity="0.501" /></g></g><g class="side-growth side-growth-west"><g class="iso-cuboid side-growth" opacity="0.960"><polygon class="left-face" points="488.89,808.97 531.88,785.87 531.88,757.87 488.89,780.97" fill="#717880" stroke="#dcdff5" stroke-width="1.86" /><polygon class="right-face" points="536.82,808.97 579.81,785.87 579.81,757.87 536.82,780.97" fill="#616971" stroke="#dcdff5" stroke-width="1.86" /><polygon class="top-face" points="488.89,780.97 536.82,780.97 579.81,757.87 531.88,757.87" fill="#f7f5f5" stroke="#dcdff5" stroke-width="1.86" /><polygon class="oxide-band" points="493.37,781.64 532.34,781.64 576.67,758.10 535.02,758.10" fill="none" stroke="#ffd4c1" stroke-width="1.51" stroke-opacity="0.501" /></g><g class="iso-cuboid side-growth" opacity="0.960"><polygon class="left-face" points="458.17,814.90 499.01,792.96 499.01,767.56 458.17,789.50" fill="#717880" stroke="#dcdff5" stroke-width="1.86" /><polygon class="right-face" points="502.10,814.90 542.94,792.96 542.94,767.56 502.10,789.50" fill="#616971" stroke="#dcdff5" stroke-width="1.86" /><polygon class="top-face" points="458.17,789.50 502.10,789.50 542.94,767.56 499.01,767.56" fill="#f8f2f0" stroke="#dcdff5" stroke-width="1.86" /><polygon class="oxide-band" points="462.24,790.11 498.03,790.11 540.09,767.77 501.86,767.77" fill="none" stroke="#ffd4c1" stroke-width="1.51" stroke-opacity="0.501" /></g><g class="iso-cuboid side-growth" opacity="0.960"><polygon class="left-face" points="414.22,820.40 452.91,799.62 452.91,776.82 414.22,797.60" fill="#717880" stroke="#dcdff5" stroke-width="1.86" /><polygon class="right-face" points="454.14,820.40 492.83,799.62 492.83,776.82 454.14,797.60" fill="#616971" stroke="#dcdff5" stroke-width="1.86" /><polygon class="top-face" points="414.22,797.60 454.14,797.60 492.83,776.82 452.91,776.82" fill="#f9efeb" stroke="#dcdff5" stroke-width="1.86" /><polygon class="oxide-band" points="418.22,798.20 450.14,798.20 490.03,777.02 455.71,777.02" fill="none" stroke="#ffd4c1" stroke-width="1.51" stroke-opacity="0.501" /></g><g class="iso-cuboid side-growth" opacity="0.960"><polygon class="left-face" points="383.87,827.47 420.41,807.84 420.41,787.64 383.87,807.27" fill="#717880" stroke="#dcdff5" stroke-width="1.86" /><polygon class="right-face" points="419.79,827.47 456.33,807.84 456.33,787.64 419.79,807.27" fill="#616971" stroke="#dcdff5" stroke-width="1.86" /><polygon class="top-face" points="383.87,807.27 419.79,807.27 456.33,787.64 420.41,787.64" fill="#f9ece7" stroke="#dcdff5" stroke-width="1.86" /><polygon class="oxide-band" points="387.87,807.87 415.79,807.87 453.53,787.84 423.21,787.84" fill="none" stroke="#ffd4c1" stroke-width="1.51" stroke-opacity="0.501" /></g><g class="iso-cuboid side-growth" opacity="0.960"><polygon class="left-face" points="348.05,832.09 382.44,813.62 382.44,796.02 348.05,814.49" fill="#717880" stroke="#dcdff5" stroke-width="1.86" /><polygon class="right-face" points="379.97,832.09 414.36,813.62 414.36,796.02 379.97,814.49" fill="#616971" stroke="#dcdff5" stroke-width="1.86" /><polygon class="top-face" points="348.05,814.49 379.97,814.49 414.36,796.02 382.44,796.02" fill="#fae9e2" stroke="#dcdff5" stroke-width="1.86" /><polygon class="oxide-band" points="352.05,815.09 375.97,815.09 411.56,796.22 385.24,796.22" fill="none" stroke="#ffd4c1" stroke-width="1.51" stroke-opacity="0.501" /></g></g><g class="side-growth side-growth-north"><g class="iso-cuboid side-growth" opacity="0.960"><polygon class="left-face" points="607.71,764.42 650.70,741.32 650.70,713.32 607.71,736.42" fill="#717880" stroke="#dcdff5" stroke-width="1.86" /><polygon class="right-face" points="655.63,764.42 698.62,741.32 698.62,713.32 655.63,736.42" fill="#616971" stroke="#dcdff5" stroke-width="1.86" /><polygon class="top-face" points="607.71,736.42 655.63,736.42 698.62,713.32 650.70,713.32" fill="#f7f5f5" stroke="#dcdff5" stroke-width="1.86" /><polygon class="oxide-band" points="612.19,737.09 651.15,737.09 695.49,713.55 653.83,713.55" fill="none" stroke="#ffd4c1" stroke-width="1.51" stroke-opacity="0.501" /></g><g class="iso-cuboid side-growth" opacity="0.960"><polygon class="left-face" points="628.77,741.35 669.61,719.41 669.61,694.01 628.77,715.95" fill="#717880" stroke="#dcdff5" stroke-width="1.86" /><polygon class="right-face" points="672.70,741.35 713.54,719.41 713.54,694.01 672.70,715.95" fill="#616971" stroke="#dcdff5" stroke-width="1.86" /><polygon class="top-face" points="628.77,715.95 672.70,715.95 713.54,694.01 669.61,694.01" fill="#f8f2f0" stroke="#dcdff5" stroke-width="1.86" /><polygon class="oxide-band" points="632.84,716.56 668.63,716.56 710.69,694.21 672.46,694.21" fill="none" stroke="#ffd4c1" stroke-width="1.51" stroke-opacity="0.501" /></g><g class="iso-cuboid side-growth" opacity="0.960"><polygon class="left-face" points="650.76,717.46 689.45,696.68 689.45,673.88 650.76,694.66" fill="#717880" stroke="#dcdff5" stroke-width="1.86" /><polygon class="right-face" points="690.68,717.46 729.37,696.68 729.37,673.88 690.68,694.66" fill="#616971" stroke="#dcdff5" stroke-width="1.86" /><polygon class="top-face" points="650.76,694.66 690.68,694.66 729.37,673.88 689.45,673.88" fill="#f9efeb" stroke="#dcdff5" stroke-width="1.86" /><polygon class="oxide-band" points="654.76,695.26 686.68,695.26 726.57,674.08 692.25,674.08" fill="none" stroke="#ffd4c1" stroke-width="1.51" stroke-opacity="0.501" /></g><g class="iso-cuboid side-growth" opacity="0.960"><polygon class="left-face" points="674.97,693.86 711.51,674.23 711.51,654.03 674.97,673.66" fill="#717880" stroke="#dcdff5" stroke-width="1.86" /><polygon class="right-face" points="710.90,693.86 747.44,674.23 747.44,654.03 710.90,673.66" fill="#616971" stroke="#dcdff5" stroke-width="1.86" /><polygon class="top-face" points="674.97,673.66 710.90,673.66 747.44,654.03 711.51,654.03" fill="#f9ece7" stroke="#dcdff5" stroke-width="1.86" /><polygon class="oxide-band" points="678.97,674.26 706.90,674.26 744.64,654.23 714.31,654.23" fill="none" stroke="#ffd4c1" stroke-width="1.51" stroke-opacity="0.501" /></g><g class="iso-cuboid side-growth" opacity="0.960"><polygon class="left-face" points="685.95,669.83 720.34,651.35 720.34,633.75 685.95,652.23" fill="#717880" stroke="#dcdff5" stroke-width="1.86" /><polygon class="right-face" points="717.88,669.83 752.27,651.35 752.27,633.75 717.88,652.23" fill="#616971" stroke="#dcdff5" stroke-width="1.86" /><polygon class="top-face" points="685.95,652.23 717.88,652.23 752.27,633.75 720.34,633.75" fill="#fae9e2" stroke="#dcdff5" stroke-width="1.86" /><polygon class="oxide-band" points="689.95,652.83 713.88,652.83 749.47,633.95 723.14,633.95" fill="none" stroke="#ffd4c1" stroke-width="1.51" stroke-opacity="0.501" /></g></g><g class="side-growth side-growth-south"><g class="iso-cuboid side-growth" opacity="0.960"><polygon class="left-face" points="590.76,832.43 633.75,809.33 633.75,781.33 590.76,804.43" fill="#717880" stroke="#dcdff5" stroke-width="1.86" /><polygon class="right-face" points="638.69,832.43 681.67,809.33 681.67,781.33 638.69,804.43" fill="#616971" stroke="#dcdff5" stroke-width="1.86" /><polygon class="top-face" points="590.76,804.43 638.69,804.43 681.67,781.33 633.75,781.33" fill="#f7f5f5" stroke="#dcdff5" stroke-width="1.86" /><polygon class="oxide-band" points="595.24,805.10 634.21,805.10 678.54,781.56 636.89,781.56" fill="none" stroke="#ffd4c1" stroke-width="1.51" stroke-opacity="0.501" /></g><g class="iso-cuboid side-growth" opacity="0.960"><polygon class="left-face" points="581.25,852.15 622.09,830.21 622.09,804.81 581.25,826.75" fill="#717880" stroke="#dcdff5" stroke-width="1.86" /><polygon class="right-face" points="625.17,852.15 666.01,830.21 666.01,804.81 625.17,826.75" fill="#616971" stroke="#dcdff5" stroke-width="1.86" /><polygon class="top-face" points="581.25,826.75 625.17,826.75 666.01,804.81 622.09,804.81" fill="#f8f2f0" stroke="#dcdff5" stroke-width="1.86" /><polygon class="oxide-band" points="585.31,827.36 621.11,827.36 663.17,805.01 624.93,805.01" fill="none" stroke="#ffd4c1" stroke-width="1.51" stroke-opacity="0.501" /></g><g class="iso-cuboid side-growth" opacity="0.960"><polygon class="left-face" points="566.27,873.44 604.96,852.65 604.96,829.85 566.27,850.64" fill="#717880" stroke="#dcdff5" stroke-width="1.86" /><polygon class="right-face" points="606.19,873.44 644.88,852.65 644.88,829.85 606.19,850.64" fill="#616971" stroke="#dcdff5" stroke-width="1.86" /><polygon class="top-face" points="566.27,850.64 606.19,850.64 644.88,829.85 604.96,829.85" fill="#f9efeb" stroke="#dcdff5" stroke-width="1.86" /><polygon class="oxide-band" points="570.27,851.24 602.19,851.24 642.08,830.05 607.76,830.05" fill="none" stroke="#ffd4c1" stroke-width="1.51" stroke-opacity="0.501" /></g><g class="iso-cuboid side-growth" opacity="0.960"><polygon class="left-face" points="549.42,892.28 585.96,872.65 585.96,852.45 549.42,872.08" fill="#717880" stroke="#dcdff5" stroke-width="1.86" /><polygon class="right-face" points="585.34,892.28 621.88,872.65 621.88,852.45 585.34,872.08" fill="#616971" stroke="#dcdff5" stroke-width="1.86" /><polygon class="top-face" points="549.42,872.08 585.34,872.08 621.88,852.45 585.96,852.45" fill="#f9ece7" stroke="#dcdff5" stroke-width="1.86" /><polygon class="oxide-band" points="553.42,872.68 581.34,872.68 619.08,852.65 588.76,852.65" fill="none" stroke="#ffd4c1" stroke-width="1.51" stroke-opacity="0.501" /></g></g><g class="corner-growth"><g class="iso-cuboid edge-growth" opacity="0.950"><polygon class="left-face" points="492.41,800.27 523.30,783.67 523.30,761.67 492.41,778.27" fill="#7f868e" stroke="#dcdff5" stroke-width="1.81" /><polygon class="right-face" points="522.41,800.27 553.30,783.67 553.30,761.67 522.41,778.27" fill="#747c84" stroke="#dcdff5" stroke-width="1.81" /><polygon class="top-face" points="492.41,778.27 522.41,778.27 553.30,761.67 523.30,761.67" fill="#f8f1ef" stroke="#dcdff5" stroke-width="1.81" /><polygon class="oxide-band" points="496.41,778.87 518.41,778.87 550.50,761.87 526.10,761.87" fill="none" stroke="#ffd4c1" stroke-width="1.46" stroke-opacity="0.501" /></g><g class="iso-cuboid edge-growth" opacity="0.950"><polygon class="left-face" points="689.59,793.69 718.34,778.25 718.34,758.25 689.59,773.69" fill="#7f868e" stroke="#dcdff5" stroke-width="1.81" /><polygon class="right-face" points="716.59,793.69 745.34,778.25 745.34,758.25 716.59,773.69" fill="#747c84" stroke="#dcdff5" stroke-width="1.81" /><polygon class="top-face" points="689.59,773.69 716.59,773.69 745.34,758.25 718.34,758.25" fill="#f9eeea" stroke="#dcdff5" stroke-width="1.81" /><polygon class="oxide-band" points="693.59,774.29 712.59,774.29 742.54,758.45 721.14,758.45" fill="none" stroke="#ffd4c1" stroke-width="1.46" stroke-opacity="0.501" /></g><g class="iso-cuboid edge-growth" opacity="0.950"><polygon class="left-face" points="499.29,823.11 530.19,806.51 530.19,788.51 499.29,805.11" fill="#7f868e" stroke="#dcdff5" stroke-width="1.81" /><polygon class="right-face" points="523.29,823.11 554.19,806.51 554.19,788.51 523.29,805.11" fill="#747c84" stroke="#dcdff5" stroke-width="1.81" /><polygon class="top-face" points="499.29,805.11 523.29,805.11 554.19,788.51 530.19,788.51" fill="#f9ebe6" stroke="#dcdff5" stroke-width="1.81" /><polygon class="oxide-band" points="503.29,805.71 519.29,805.71 551.39,788.71 532.99,788.71" fill="none" stroke="#ffd4c1" stroke-width="1.46" stroke-opacity="0.501" /></g><g class="iso-cuboid edge-growth" opacity="0.950"><polygon class="left-face" points="692.01,834.54 720.76,819.09 720.76,803.09 692.01,818.54" fill="#7f868e" stroke="#dcdff5" stroke-width="1.81" /><polygon class="right-face" points="722.01,834.54 750.76,819.09 750.76,803.09 722.01,818.54" fill="#747c84" stroke="#dcdff5" stroke-width="1.81" /><polygon class="top-face" points="692.01,818.54 722.01,818.54 750.76,803.09 720.76,803.09" fill="#f8f1ef" stroke="#dcdff5" stroke-width="1.81" /><polygon class="oxide-band" points="696.01,819.14 718.01,819.14 747.96,803.29 723.56,803.29" fill="none" stroke="#ffd4c1" stroke-width="1.46" stroke-opacity="0.501" /></g><g class="iso-cuboid edge-growth" opacity="0.950"><polygon class="left-face" points="477.75,786.27 508.65,769.67 508.65,747.67 477.75,764.27" fill="#7f868e" stroke="#dcdff5" stroke-width="1.81" /><polygon class="right-face" points="504.75,786.27 535.65,769.67 535.65,747.67 504.75,764.27" fill="#747c84" stroke="#dcdff5" stroke-width="1.81" /><polygon class="top-face" points="477.75,764.27 504.75,764.27 535.65,747.67 508.65,747.67" fill="#f9eeea" stroke="#dcdff5" stroke-width="1.81" /><polygon class="oxide-band" points="481.75,764.87 500.75,764.87 532.85,747.87 511.45,747.87" fill="none" stroke="#ffd4c1" stroke-width="1.46" stroke-opacity="0.501" /></g><g class="iso-cuboid edge-growth" opacity="0.950"><polygon class="left-face" points="706.07,779.69 734.81,764.25 734.81,744.25 706.07,759.69" fill="#7f868e" stroke="#dcdff5" stroke-width="1.81" /><polygon class="right-face" points="730.07,779.69 758.81,764.25 758.81,744.25 730.07,759.69" fill="#747c84" stroke="#dcdff5" stroke-width="1.81" /><polygon class="top-face" points="706.07,759.69 730.07,759.69 758.81,744.25 734.81,744.25" fill="#f9ebe6" stroke="#dcdff5" stroke-width="1.81" /><polygon class="oxide-band" points="710.07,760.29 726.07,760.29 756.01,744.45 737.61,744.45" fill="none" stroke="#ffd4c1" stroke-width="1.46" stroke-opacity="0.501" /></g><g class="iso-cuboid edge-growth" opacity="0.950"><polygon class="left-face" points="475.86,843.11 506.76,826.51 506.76,808.51 475.86,825.11" fill="#7f868e" stroke="#dcdff5" stroke-width="1.81" /><polygon class="right-face" points="505.86,843.11 536.76,826.51 536.76,808.51 505.86,825.11" fill="#747c84" stroke="#dcdff5" stroke-width="1.81" /><polygon class="top-face" points="475.86,825.11 505.86,825.11 536.76,808.51 506.76,808.51" fill="#f8f1ef" stroke="#dcdff5" stroke-width="1.81" /><polygon class="oxide-band" points="479.86,825.71 501.86,825.71 533.96,808.71 509.56,808.71" fill="none" stroke="#ffd4c1" stroke-width="1.46" stroke-opacity="0.501" /></g><g class="iso-cuboid edge-growth" opacity="0.950"><polygon class="left-face" points="702.09,836.54 730.84,821.09 730.84,805.09 702.09,820.54" fill="#7f868e" stroke="#dcdff5" stroke-width="1.81" /><polygon class="right-face" points="729.09,836.54 757.84,821.09 757.84,805.09 729.09,820.54" fill="#747c84" stroke="#dcdff5" stroke-width="1.81" /><polygon class="top-face" points="702.09,820.54 729.09,820.54 757.84,805.09 730.84,805.09" fill="#f9eeea" stroke="#dcdff5" stroke-width="1.81" /><polygon class="oxide-band" points="706.09,821.14 725.09,821.14 755.04,805.29 733.64,805.29" fill="none" stroke="#ffd4c1" stroke-width="1.46" stroke-opacity="0.501" /></g></g></g>
  </g>
  <text x="600.0" y="1134" text-anchor="middle" fill="#c7d0dc" font-family="monospace" font-size="18">826b5c68c64992f89a73d4…</text>
  <text x="600.0" y="1162" text-anchor="middle" fill="#7d8896" font-family="monospace" font-size="14">hopper / silver_rose / common</text>
</svg>
