<svg xmlns="http://www.w3.org/2000/svg" width="1600" height="1000" viewBox="0 0 1600 1000">
  <rect width="100%" height="100%" fill="#090b14" />
  <rect x="20" y="20" width="1560" height="960" rx="28" ry="28" fill="#0f1724" stroke="#24364f" stroke-width="3" />
  <rect x="20" y="20" width="1560" height="8" fill="#67e8f9" rx="6" ry="6" />

  <text x="60" y="88" fill="#f8fbff" font-family="Segoe UI, Arial, sans-serif" font-size="44" font-weight="700">CRYSTAL RECEIPT</text>
  <text x="60" y="124" fill="#b7c4d8" font-family="Segoe UI, Arial, sans-serif" font-size="22">RECEIPT EVIDENCE -&gt; DETERMINISTIC CRYSTAL -&gt; VISUAL ARTIFACT</text>
<g class="hopper-crystal"><g class="isometric-block tower-block" opacity="1.000"><polygon points="758.23,300.00 772.41,291.53 772.41,330.35 758.23,338.82" fill="#8e949e" stroke="#dddcf2" stroke-width="2.28" /><polygon points="841.77,300.00 855.95,291.53 855.95,330.35 841.77,338.82" fill="#858d95" stroke="#dddcf2" stroke-width="2.28" /><polygon points="758.23,300.00 841.77,300.00 855.95,291.53 772.41,291.53" fill="#f8fafc" stroke="#dddcf2" stroke-width="2.28" /></g><polygon class="hopper-band" points="768.26,304.01 831.74,304.01 839.97,299.10 776.48,299.10" fill="none" stroke="#ffd5bf" stroke-opacity="0.501" stroke-width="1.98" /><g class="isometric-block tower-block" opacity="1.000"><polygon points="765.73,289.34 779.91,280.87 779.91,310.69 765.73,319.17" fill="#8d939d" stroke="#dddcf2" stroke-width="2.28" /><polygon points="834.27,289.34 848.45,280.87 848.45,310.69 834.27,319.17" fill="#95929c" stroke="#dddcf2" stroke-width="2.28" /><polygon points="765.73,289.34 834.27,289.34 848.45,280.87 779.91,280.87" fill="#eef1f4" stroke="#dddcf2" stroke-width="2.28" /></g><polygon class="hopper-band" points="773.96,292.63 826.04,292.63 834.27,287.72 782.18,287.72" fill="none" stroke="#ffd5bf" stroke-opacity="0.501" stroke-width="1.98" /><g class="isometric-block tower-block" opacity="1.000"><polygon points="773.23,278.69 787.42,270.21 787.42,291.04 773.23,299.51" fill="#9f99a3" stroke="#dddcf2" stroke-width="2.28" /><polygon points="826.77,278.69 840.95,270.21 840.95,291.04 826.77,299.51" fill="#998f99" stroke="#dddcf2" stroke-width="2.28" /><polygon points="773.23,278.69 826.77,278.69 840.95,270.21 787.42,270.21" fill="#e2e5e9" stroke="#dddcf2" stroke-width="2.28" /></g><polygon class="hopper-band" points="779.66,281.25 820.34,281.25 828.57,276.34 787.88,276.34" fill="none" stroke="#ffd5bf" stroke-opacity="0.501" stroke-width="1.98" /><g class="isometric-block tower-block" opacity="1.000"><polygon points="780.74,268.03 794.92,259.56 794.92,271.52 780.74,279.99" fill="#a2959f" stroke="#dddcf2" stroke-width="2.28" /><polygon points="819.26,268.03 833.45,259.56 833.45,271.52 819.26,279.99" fill="#a0a6ad" stroke="#dddcf2" stroke-width="2.28" /><polygon points="780.74,268.03 819.26,268.03 833.45,259.56 794.92,259.56" fill="#fbe8ed" stroke="#dddcf2" stroke-width="2.28" /></g><polygon class="hopper-band" points="785.36,269.88 814.64,269.88 822.87,264.96 793.58,264.96" fill="none" stroke="#ffd5bf" stroke-opacity="0.501" stroke-width="1.98" /><g class="isometric-block side-block" opacity="0.940"><polygon points="732.47,292.33 744.10,285.38 744.10,301.02 732.47,307.97" fill="#9da2aa" stroke="#dddcf2" stroke-width="2.03" /><polygon points="758.23,292.33 769.86,285.38 769.86,301.02 758.23,307.97" fill="#848990" stroke="#dddcf2" stroke-width="2.03" /><polygon points="732.47,292.33 758.23,292.33 769.86,285.38 744.10,285.38" fill="#f5f8fc" stroke="#dddcf2" stroke-width="2.03" /></g><g class="isometric-block side-block" opacity="0.940"><polygon points="726.26,284.65 737.89,277.71 737.89,291.97 726.26,298.91" fill="#8b939d" stroke="#dddcf2" stroke-width="2.03" /><polygon points="749.72,284.65 761.35,277.71 761.35,291.97 749.72,298.91" fill="#767c85" stroke="#dddcf2" stroke-width="2.03" /><polygon points="726.26,284.65 749.72,284.65 761.35,277.71 737.89,277.71" fill="#d9e0e7" stroke="#dddcf2" stroke-width="2.03" /></g><g class="isometric-block side-block" opacity="0.940"><polygon points="720.05,276.98 731.68,270.03 731.68,282.91 720.05,289.86" fill="#7e8690" stroke="#dddcf2" stroke-width="2.03" /><polygon points="741.21,276.98 752.84,270.03 752.84,282.91 741.21,289.86" fill="#6a717b" stroke="#dddcf2" stroke-width="2.03" /><polygon points="720.05,276.98 741.21,276.98 752.84,270.03 731.68,270.03" fill="#c3cbd3" stroke="#dddcf2" stroke-width="2.03" /></g><g class="isometric-block side-block" opacity="0.940"><polygon points="713.84,269.31 725.47,262.36 725.47,273.86 713.84,280.81" fill="#9f8f9a" stroke="#dddcf2" stroke-width="2.03" /><polygon points="732.70,269.31 744.33,262.36 744.33,273.86 732.70,280.81" fill="#867983" stroke="#dddcf2" stroke-width="2.03" /><polygon points="713.84,269.31 732.70,269.31 744.33,262.36 725.47,262.36" fill="#f9d9e3" stroke="#dddcf2" stroke-width="2.03" /></g><g class="isometric-block side-block" opacity="0.940"><polygon points="707.63,261.63 719.26,254.69 719.26,264.81 707.63,271.75" fill="#9b828e" stroke="#dddcf2" stroke-width="2.03" /><polygon points="724.19,261.63 735.82,254.69 735.82,264.81 724.19,271.75" fill="#836e79" stroke="#dddcf2" stroke-width="2.03" /><polygon points="707.63,261.63 724.19,261.63 735.82,254.69 719.26,254.69" fill="#f2c5cf" stroke="#dddcf2" stroke-width="2.03" /></g><g class="isometric-block side-block" opacity="0.940"><polygon points="841.77,292.33 853.40,285.38 853.40,301.02 841.77,307.97" fill="#7e8690" stroke="#dddcf2" stroke-width="2.03" /><polygon points="867.53,292.33 879.16,285.38 879.16,301.02 867.53,307.97" fill="#6a717b" stroke="#dddcf2" stroke-width="2.03" /><polygon points="841.77,292.33 867.53,292.33 879.16,285.38 853.40,285.38" fill="#c3cbd3" stroke="#dddcf2" stroke-width="2.03" /></g><g class="isometric-block side-block" opacity="0.940"><polygon points="850.28,284.65 861.91,277.71 861.91,291.97 850.28,298.91" fill="#9f8f9a" stroke="#dddcf2" stroke-width="2.03" /><polygon points="873.74,284.65 885.37,277.71 885.37,291.97 873.74,298.91" fill="#867983" stroke="#dddcf2" stroke-width="2.03" /><polygon points="850.28,284.65 873.74,284.65 885.37,277.71 861.91,277.71" fill="#f9d9e3" stroke="#dddcf2" stroke-width="2.03" /></g><g class="isometric-block side-block" opacity="0.940"><polygon points="858.79,276.98 870.42,270.03 870.42,282.91 858.79,289.86" fill="#9b828e" stroke="#dddcf2" stroke-width="2.03" /><polygon points="879.95,276.98 891.58,270.03 891.58,282.91 879.95,289.86" fill="#836e79" stroke="#dddcf2" stroke-width="2.03" /><polygon points="858.79,276.98 879.95,276.98 891.58,270.03 870.42,270.03" fill="#f2c5cf" stroke="#dddcf2" stroke-width="2.03" /></g><g class="isometric-block side-block" opacity="0.940"><polygon points="867.30,269.31 878.93,262.36 878.93,273.86 867.30,280.81" fill="#9da2aa" stroke="#dddcf2" stroke-width="2.03" /><polygon points="886.16,269.31 897.79,262.36 897.79,273.86 886.16,280.81" fill="#848990" stroke="#dddcf2" stroke-width="2.03" /><polygon points="867.30,269.31 886.16,269.31 897.79,262.36 878.93,262.36" fill="#f5f8fc" stroke="#dddcf2" stroke-width="2.03" /></g><g class="isometric-block side-block" opacity="0.940"><polygon points="875.81,261.63 887.44,254.69 887.44,264.81 875.81,271.75" fill="#8b939d" stroke="#dddcf2" stroke-width="2.03" /><polygon points="892.37,261.63 904.00,254.69 904.00,264.81 892.37,271.75" fill="#767c85" stroke="#dddcf2" stroke-width="2.03" /><polygon points="875.81,261.63 892.37,261.63 904.00,254.69 887.44,254.69" fill="#d9e0e7" stroke="#dddcf2" stroke-width="2.03" /></g></g>

  <rect x="50" y="160" width="460" height="700" rx="24" ry="24" fill="#121c2b" stroke="#2b3d59" stroke-width="2.5" />
  <text x="78" y="208" fill="#67e8f9" font-family="Segoe UI, Arial, sans-serif" font-size="24" font-weight="700">INPUT: RECEIPT EVIDENCE</text>
  <text x="78" y="252" fill="#f8fbff" font-family="Segoe UI, Arial, sans-serif" font-size="18" font-weight="700">SESSION_ID</text>
  <text x="78" y="278" fill="#d7e3f4" font-family="Consolas, monospace" font-size="18">sess_demo_changed_002</text>
  <text x="78" y="324" fill="#f8fbff" font-family="Segoe UI, Arial, sans-serif" font-size="18" font-weight="700">RECEIPT_HASH</text>
  <text x="78" y="350" fill="#d7e3f4" font-family="Consolas, monospace" font-size="18">rcpt_demo_...a0c322</text>
  <text x="78" y="396" fill="#f8fbff" font-family="Segoe UI, Arial, sans-serif" font-size="18" font-weight="700">DIFF_HASH</text>
  <text x="78" y="422" fill="#d7e3f4" font-family="Consolas, monospace" font-size="18">diff_demo_...93de54</text>
  <text x="78" y="468" fill="#f8fbff" font-family="Segoe UI, Arial, sans-serif" font-size="18" font-weight="700">EVENT_ROOT</text>
  <text x="78" y="494" fill="#d7e3f4" font-family="Consolas, monospace" font-size="18">event_root...e8af10</text>
  <text x="78" y="540" fill="#f8fbff" font-family="Segoe UI, Arial, sans-serif" font-size="18" font-weight="700">AGENT_ID</text>
  <text x="78" y="566" fill="#d7e3f4" font-family="Consolas, monospace" font-size="17">agent.crystal.demo.changed</text>
  <text x="78" y="612" fill="#f8fbff" font-family="Segoe UI, Arial, sans-serif" font-size="18" font-weight="700">SCOPE / AUTHORITY</text>
  <text x="78" y="638" fill="#d7e3f4" font-family="Consolas, monospace" font-size="17">workspace-write / captured-evidence</text>
  <text x="78" y="684" fill="#f8fbff" font-family="Segoe UI, Arial, sans-serif" font-size="18" font-weight="700">CHANGED_FILES</text>
  <text x="78" y="710" fill="#d7e3f4" font-family="Consolas, monospace" font-size="17">src/visual_rules.py, docs/CHANGELOG.md +1 more</text>
  <text x="78" y="756" fill="#f8fbff" font-family="Segoe UI, Arial, sans-serif" font-size="18" font-weight="700">TIMESTAMP</text>
  <text x="78" y="782" fill="#d7e3f4" font-family="Consolas, monospace" font-size="17">2026-06-05T10:30:00Z</text>
  <text x="78" y="828" fill="#f8fbff" font-family="Segoe UI, Arial, sans-serif" font-size="18" font-weight="700">VERIFIER_RESULT</text>
  <text x="78" y="854" fill="#d7e3f4" font-family="Consolas, monospace" font-size="18">OK</text>
  <text x="78" y="900" fill="#f8fbff" font-family="Segoe UI, Arial, sans-serif" font-size="18" font-weight="700">SIGNATURE_BLOCK</text>
  <text x="78" y="926" fill="#d7e3f4" font-family="Consolas, monospace" font-size="17">demo-hmac</text>

  <rect x="540" y="160" width="500" height="700" rx="24" ry="24" fill="#101826" stroke="#2b3d59" stroke-width="2.5" />
  <text x="568" y="208" fill="#a78bfa" font-family="Segoe UI, Arial, sans-serif" font-size="24" font-weight="700">PROCESS: DETERMINISTIC CRYSTAL GENERATION</text>
  <text x="568" y="258" fill="#f8fbff" font-family="Segoe UI, Arial, sans-serif" font-size="18" font-weight="700">CANONICALIZATION</text>
  <text x="568" y="284" fill="#d7e3f4" font-family="Consolas, monospace" font-size="17">sorted keys → compact JSON → SHA-256</text>
  <text x="568" y="330" fill="#f8fbff" font-family="Segoe UI, Arial, sans-serif" font-size="18" font-weight="700">CANONICAL_RECEIPT_HASH</text>
  <text x="568" y="356" fill="#d7e3f4" font-family="Consolas, monospace" font-size="18">826b5c68c6...fa7e0a</text>
  <text x="568" y="402" fill="#f8fbff" font-family="Segoe UI, Arial, sans-serif" font-size="18" font-weight="700">SEED DERIVATION</text>
  <text x="568" y="428" fill="#d7e3f4" font-family="Consolas, monospace" font-size="17">MASTER_SEED | SHAPE_SEED | PALETTE_SEED</text>
  <text x="568" y="454" fill="#d7e3f4" font-family="Consolas, monospace" font-size="17">SYMMETRY_SEED | LAYER_SEED | OXIDE_SEED | TRAIT_SEED</text>
  <text x="568" y="500" fill="#f8fbff" font-family="Segoe UI, Arial, sans-serif" font-size="18" font-weight="700">VISUAL TRAIT DERIVATION</text>
  <text x="568" y="526" fill="#d7e3f4" font-family="Consolas, monospace" font-size="17">geometry_style=hopper</text>
  <text x="568" y="552" fill="#d7e3f4" font-family="Consolas, monospace" font-size="17">palette_name=silver_rose</text>
  <text x="568" y="578" fill="#d7e3f4" font-family="Consolas, monospace" font-size="17">symmetry=high | layer_count=6</text>
  <text x="568" y="604" fill="#d7e3f4" font-family="Consolas, monospace" font-size="17">shard_count=28 | rarity=common</text>
  <line x1="790" y1="620" x2="790" y2="760" stroke="#35507c" stroke-width="2" stroke-dasharray="8 8" />
  <text x="568" y="792" fill="#b7c4d8" font-family="Segoe UI, Arial, sans-serif" font-size="18">receipt evidence is transformed into a reproducible bismuth / hopper crystal grammar</text>

  <rect x="1070" y="160" width="480" height="700" rx="24" ry="24" fill="#121c2b" stroke="#2b3d59" stroke-width="2.5" />
  <text x="1098" y="208" fill="#f472b6" font-family="Segoe UI, Arial, sans-serif" font-size="24" font-weight="700">OUTPUT: CRYSTAL ARTIFACT &amp; METADATA</text>
<g id="bismuth-crystal" class="hopper-crystal"><g class="isometric-block tower-block" opacity="1.000"><polygon points="1135.54,680.00 1160.82,664.90 1160.82,734.11 1135.54,749.21" fill="#8e949e" stroke="#dddcf2" stroke-width="2.28" /><polygon points="1284.46,680.00 1309.74,664.90 1309.74,734.11 1284.46,749.21" fill="#858d95" stroke="#dddcf2" stroke-width="2.28" /><polygon points="1135.54,680.00 1284.46,680.00 1309.74,664.90 1160.82,664.90" fill="#f8fafc" stroke="#dddcf2" stroke-width="2.28" /></g><polygon class="hopper-band" points="1153.41,687.15 1266.59,687.15 1281.25,678.39 1168.08,678.39" fill="none" stroke="#ffd5bf" stroke-opacity="0.501" stroke-width="1.98" /><g class="isometric-block tower-block" opacity="1.000"><polygon points="1148.92,661.00 1174.20,645.90 1174.20,699.06 1148.92,714.16" fill="#8d939d" stroke="#dddcf2" stroke-width="2.28" /><polygon points="1271.08,661.00 1296.36,645.90 1296.36,699.06 1271.08,714.16" fill="#95929c" stroke="#dddcf2" stroke-width="2.28" /><polygon points="1148.92,661.00 1271.08,661.00 1296.36,645.90 1174.20,645.90" fill="#eef1f4" stroke="#dddcf2" stroke-width="2.28" /></g><polygon class="hopper-band" points="1163.58,666.87 1256.42,666.87 1271.09,658.11 1178.24,658.11" fill="none" stroke="#ffd5bf" stroke-opacity="0.501" stroke-width="1.98" /><g class="isometric-block tower-block" opacity="1.000"><polygon points="1162.29,642.00 1187.57,626.90 1187.57,664.02 1162.29,679.12" fill="#9f99a3" stroke="#dddcf2" stroke-width="2.28" /><polygon points="1257.71,642.00 1282.99,626.90 1282.99,664.02 1257.71,679.12" fill="#998f99" stroke="#dddcf2" stroke-width="2.28" /><polygon points="1162.29,642.00 1257.71,642.00 1282.99,626.90 1187.57,626.90" fill="#e2e5e9" stroke="#dddcf2" stroke-width="2.28" /></g><polygon class="hopper-band" points="1173.74,646.58 1246.26,646.58 1260.92,637.83 1188.40,637.83" fill="none" stroke="#ffd5bf" stroke-opacity="0.501" stroke-width="1.98" /><g class="isometric-block tower-block" opacity="1.000"><polygon points="1175.66,623.01 1200.94,607.91 1200.94,629.23 1175.66,644.33" fill="#a2959f" stroke="#dddcf2" stroke-width="2.28" /><polygon points="1244.34,623.01 1269.62,607.91 1269.62,629.23 1244.34,644.33" fill="#a0a6ad" stroke="#dddcf2" stroke-width="2.28" /><polygon points="1175.66,623.01 1244.34,623.01 1269.62,607.91 1200.94,607.91" fill="#fbe8ed" stroke="#dddcf2" stroke-width="2.28" /></g><polygon class="hopper-band" points="1183.90,626.30 1236.10,626.30 1250.76,617.54 1198.56,617.54" fill="none" stroke="#ffd5bf" stroke-opacity="0.501" stroke-width="1.98" /><g class="isometric-block side-block" opacity="0.940"><polygon points="1089.62,666.32 1110.35,653.94 1110.35,681.82 1089.62,694.20" fill="#9da2aa" stroke="#dddcf2" stroke-width="2.03" /><polygon points="1135.54,666.32 1156.27,653.94 1156.27,681.82 1135.54,694.20" fill="#848990" stroke="#dddcf2" stroke-width="2.03" /><polygon points="1089.62,666.32 1135.54,666.32 1156.27,653.94 1110.35,653.94" fill="#f5f8fc" stroke="#dddcf2" stroke-width="2.03" /></g><g class="isometric-block side-block" opacity="0.940"><polygon points="1078.55,652.64 1099.28,640.26 1099.28,665.68 1078.55,678.06" fill="#8b939d" stroke="#dddcf2" stroke-width="2.03" /><polygon points="1120.37,652.64 1141.10,640.26 1141.10,665.68 1120.37,678.06" fill="#767c85" stroke="#dddcf2" stroke-width="2.03" /><polygon points="1078.55,652.64 1120.37,652.64 1141.10,640.26 1099.28,640.26" fill="#d9e0e7" stroke="#dddcf2" stroke-width="2.03" /></g><g class="isometric-block side-block" opacity="0.940"><polygon points="1067.48,638.96 1088.21,626.58 1088.21,649.54 1067.48,661.92" fill="#7e8690" stroke="#dddcf2" stroke-width="2.03" /><polygon points="1105.20,638.96 1125.93,626.58 1125.93,649.54 1105.20,661.92" fill="#6a717b" stroke="#dddcf2" stroke-width="2.03" /><polygon points="1067.48,638.96 1105.20,638.96 1125.93,626.58 1088.21,626.58" fill="#c3cbd3" stroke="#dddcf2" stroke-width="2.03" /></g><g class="isometric-block side-block" opacity="0.940"><polygon points="1056.41,625.29 1077.14,612.90 1077.14,633.40 1056.41,645.79" fill="#9f8f9a" stroke="#dddcf2" stroke-width="2.03" /><polygon points="1090.03,625.29 1110.76,612.90 1110.76,633.40 1090.03,645.79" fill="#867983" stroke="#dddcf2" stroke-width="2.03" /><polygon points="1056.41,625.29 1090.03,625.29 1110.76,612.90 1077.14,612.90" fill="#f9d9e3" stroke="#dddcf2" stroke-width="2.03" /></g><g class="isometric-block side-block" opacity="0.940"><polygon points="1045.34,611.61 1066.07,599.22 1066.07,617.26 1045.34,629.65" fill="#9b828e" stroke="#dddcf2" stroke-width="2.03" /><polygon points="1074.86,611.61 1095.59,599.22 1095.59,617.26 1074.86,629.65" fill="#836e79" stroke="#dddcf2" stroke-width="2.03" /><polygon points="1045.34,611.61 1074.86,611.61 1095.59,599.22 1066.07,599.22" fill="#f2c5cf" stroke="#dddcf2" stroke-width="2.03" /></g><g class="isometric-block side-block" opacity="0.940"><polygon points="1284.46,666.32 1305.19,653.94 1305.19,681.82 1284.46,694.20" fill="#7e8690" stroke="#dddcf2" stroke-width="2.03" /><polygon points="1330.38,666.32 1351.11,653.94 1351.11,681.82 1330.38,694.20" fill="#6a717b" stroke="#dddcf2" stroke-width="2.03" /><polygon points="1284.46,666.32 1330.38,666.32 1351.11,653.94 1305.19,653.94" fill="#c3cbd3" stroke="#dddcf2" stroke-width="2.03" /></g><g class="isometric-block side-block" opacity="0.940"><polygon points="1299.63,652.64 1320.36,640.26 1320.36,665.68 1299.63,678.06" fill="#9f8f9a" stroke="#dddcf2" stroke-width="2.03" /><polygon points="1341.45,652.64 1362.18,640.26 1362.18,665.68 1341.45,678.06" fill="#867983" stroke="#dddcf2" stroke-width="2.03" /><polygon points="1299.63,652.64 1341.45,652.64 1362.18,640.26 1320.36,640.26" fill="#f9d9e3" stroke="#dddcf2" stroke-width="2.03" /></g><g class="isometric-block side-block" opacity="0.940"><polygon points="1314.80,638.96 1335.53,626.58 1335.53,649.54 1314.80,661.92" fill="#9b828e" stroke="#dddcf2" stroke-width="2.03" /><polygon points="1352.52,638.96 1373.25,626.58 1373.25,649.54 1352.52,661.92" fill="#836e79" stroke="#dddcf2" stroke-width="2.03" /><polygon points="1314.80,638.96 1352.52,638.96 1373.25,626.58 1335.53,626.58" fill="#f2c5cf" stroke="#dddcf2" stroke-width="2.03" /></g><g class="isometric-block side-block" opacity="0.940"><polygon points="1329.97,625.29 1350.70,612.90 1350.70,633.40 1329.97,645.79" fill="#9da2aa" stroke="#dddcf2" stroke-width="2.03" /><polygon points="1363.59,625.29 1384.32,612.90 1384.32,633.40 1363.59,645.79" fill="#848990" stroke="#dddcf2" stroke-width="2.03" /><polygon points="1329.97,625.29 1363.59,625.29 1384.32,612.90 1350.70,612.90" fill="#f5f8fc" stroke="#dddcf2" stroke-width="2.03" /></g><g class="isometric-block side-block" opacity="0.940"><polygon points="1345.14,611.61 1365.87,599.22 1365.87,617.26 1345.14,629.65" fill="#8b939d" stroke="#dddcf2" stroke-width="2.03" /><polygon points="1374.66,611.61 1395.39,599.22 1395.39,617.26 1374.66,629.65" fill="#767c85" stroke="#dddcf2" stroke-width="2.03" /><polygon points="1345.14,611.61 1374.66,611.61 1395.39,599.22 1365.87,599.22" fill="#d9e0e7" stroke="#dddcf2" stroke-width="2.03" /></g></g>
  <text x="1098" y="270" fill="#f8fbff" font-family="Segoe UI, Arial, sans-serif" font-size="18" font-weight="700">METADATA SUMMARY</text>
  <text x="1098" y="300" fill="#d7e3f4" font-family="Consolas, monospace" font-size="17">canonical_receipt_hash: 826b5c68c6...fa7e0a</text>
  <text x="1098" y="330" fill="#d7e3f4" font-family="Consolas, monospace" font-size="17">visual_traits: hopper / silver_rose / common</text>
  <text x="1098" y="360" fill="#d7e3f4" font-family="Consolas, monospace" font-size="17">ACTION_GROWTH_MAP: semantic evidence → mutation map</text>
  <text x="1098" y="390" fill="#d7e3f4" font-family="Consolas, monospace" font-size="16">changed_files->terraces | verifier_result->seal/glow | scope/authority->boundary | diff/eventRoot->growth pattern</text>
  <text x="1098" y="420" fill="#d7e3f4" font-family="Consolas, monospace" font-size="17">receipt_card file: receipt-card.svg</text>
  <text x="1098" y="450" fill="#d7e3f4" font-family="Consolas, monospace" font-size="17">provenance: deterministic / reproducible / shareable</text>
  <text x="1098" y="760" fill="#f8fbff" font-family="Segoe UI, Arial, sans-serif" font-size="18" font-weight="700">CRYSTAL PREVIEW</text>
  <text x="1098" y="790" fill="#d7e3f4" font-family="Consolas, monospace" font-size="17">crystal.svg | crystal.metadata.json | receipt-card.svg</text>
  <text x="1098" y="820" fill="#d7e3f4" font-family="Consolas, monospace" font-size="17">artifact hash: 72ee04c505...271bea</text>

  <rect x="50" y="890" width="1500" height="70" rx="18" ry="18" fill="#121212" stroke="#334155" stroke-width="2.5" />
  <text x="78" y="922" fill="#fef08a" font-family="Segoe UI, Arial, sans-serif" font-size="20" font-weight="700">IMPORTANT BOUNDARY:</text>
  <text x="78" y="948" fill="#f8fbff" font-family="Segoe UI, Arial, sans-serif" font-size="20">Visual artifact, not verifier. The crystal is not the security verifier. Verification must be performed by an independent verifier.</text>
</svg>
