<svg xmlns="http://www.w3.org/2000/svg" width="1200" height="1200" viewBox="0 0 1200 1200">

  <defs>
    <radialGradient id="bg" cx="50%" cy="45%" r="70%">
      <stop offset="0%" stop-color="#10131a" />
      <stop offset="100%" stop-color="#030507" />
    </radialGradient>
    <filter id="glow">
      <feGaussianBlur stdDeviation="6" result="blur" />
      <feMerge>
        <feMergeNode in="blur" />
        <feMergeNode in="SourceGraphic" />
      </feMerge>
    </filter>
  </defs>
  <rect width="100%" height="100%" fill="url(#bg)" />
  <g filter="url(#glow)">
  <polygon points="347.11,284.91 692.89,230.57 984.25,392.63 1050.52,676.17 852.89,915.09 507.11,969.43 215.75,807.37 149.48,523.83" fill="#9d4edd" fill-opacity="0.65" stroke="#ffffff" stroke-opacity="0.18" stroke-width="1.5" />
  <polygon points="548.91,381.43 752.35,415.83 866.55,558.11 824.6,724.93 651.09,818.57 447.65,784.17 333.45,641.89 375.4,475.07" fill="#02060a" fill-opacity="0.293" stroke="#9d4edd" stroke-opacity="0.35" stroke-width="1" />
  <line x1="347.11" y1="284.91" x2="752.35" y2="415.83" stroke="#9d4edd" stroke-opacity="0.35" stroke-width="1.2" />
  <polygon points="407.68,286.3 734.52,266.67 982.56,442.3 1006.5,710.3 792.32,913.7 465.48,933.33 217.44,757.7 193.5,489.7" fill="#7b2cbf" fill-opacity="0.613" stroke="#ffffff" stroke-opacity="0.18" stroke-width="2.0" />
  <polygon points="581.54,393.4 765.1,443.21 851.95,584.86 791.21,735.39 618.46,806.6 434.9,756.79 348.05,615.14 408.79,464.61" fill="#02060a" fill-opacity="0.276" stroke="#7b2cbf" stroke-opacity="0.35" stroke-width="1" />
  <line x1="734.52" y1="266.67" x2="851.95" y2="584.86" stroke="#7b2cbf" stroke-opacity="0.35" stroke-width="1.2" />
  <polygon points="592.67,275.04 875.04,365.97 996.29,593.99 885.41,825.53 607.33,924.96 324.96,834.03 203.71,606.01 314.59,374.47" fill="#5a189a" fill-opacity="0.575" stroke="#ffffff" stroke-opacity="0.18" stroke-width="2.5" />
  <polygon points="685.48,421.51 814.36,523.35 817.67,670.09 693.47,775.77 514.52,778.49 385.64,676.65 382.33,529.91 506.53,424.23" fill="#02060a" fill-opacity="0.259" stroke="#5a189a" stroke-opacity="0.35" stroke-width="1" />
  <line x1="996.29" y1="593.99" x2="693.47" y2="775.77" stroke="#5a189a" stroke-opacity="0.35" stroke-width="1.2" />
  <polygon points="660.73,305.25 897.12,426.79 959.46,649.8 811.23,843.64 539.27,894.75 302.88,773.21 240.54,550.2 388.77,356.36" fill="#3c096c" fill-opacity="0.538" stroke="#ffffff" stroke-opacity="0.18" stroke-width="1.5" />
  <polygon points="714.26,450.58 809.65,560.6 782.22,693.7 648.05,771.91 485.74,749.42 390.35,639.4 417.78,506.3 551.95,428.09" fill="#02060a" fill-opacity="0.242" stroke="#3c096c" stroke-opacity="0.35" stroke-width="1" />
  <line x1="811.23" y1="843.64" x2="485.74" y2="749.42" stroke="#3c096c" stroke-opacity="0.35" stroke-width="1.2" />
  <polygon points="546.8,330.67 794.63,378.71 928.45,556.38 869.87,759.6 653.2,869.33 405.37,821.29 271.55,643.62 330.13,440.4" fill="#240046" fill-opacity="0.5" stroke="#ffffff" stroke-opacity="0.18" stroke-width="2.0" />
  <polygon points="645.16,443.34 767.02,515.41 791.05,637.03 703.16,736.96 554.84,756.66 432.98,684.59 408.95,562.97 496.84,463.04" fill="#02060a" fill-opacity="0.225" stroke="#240046" stroke-opacity="0.35" stroke-width="1" />
  <line x1="653.2" y1="869.33" x2="432.98" y2="684.59" stroke="#240046" stroke-opacity="0.35" stroke-width="1.2" />
  <polygon points="776.7,400.28 897.17,561.23 843.56,744.89 647.28,843.68 423.3,799.72 302.83,638.77 356.44,455.11 552.72,356.32" fill="#9d4edd" fill-opacity="0.463" stroke="#ffffff" stroke-opacity="0.18" stroke-width="2.5" />
  <polygon points="751.31,523.85 772.66,633.89 692.87,724.07 558.68,741.58 448.69,676.15 427.34,566.11 507.13,475.93 641.32,458.42" fill="#02060a" fill-opacity="0.208" stroke="#9d4edd" stroke-opacity="0.35" stroke-width="1" />
  <line x1="302.83" y1="638.77" x2="507.13" y2="475.93" stroke="#9d4edd" stroke-opacity="0.35" stroke-width="1.2" />
  <polygon points="736.45,409.82 860.48,544.64 831.93,711.89 667.51,813.6 463.55,790.18 339.52,655.36 368.07,488.11 532.49,386.4" fill="#7b2cbf" fill-opacity="0.425" stroke="#ffffff" stroke-opacity="0.18" stroke-width="1.5" />
  <polygon points="726.74,521.6 757.23,618.05 695.61,703.93 577.99,728.93 473.26,678.4 442.77,581.95 504.39,496.07 622.01,471.07" fill="#02060a" fill-opacity="0.191" stroke="#7b2cbf" stroke-opacity="0.35" stroke-width="1" />
  <line x1="368.07" y1="488.11" x2="622.01" y2="471.07" stroke="#7b2cbf" stroke-opacity="0.35" stroke-width="1.2" />
  <polygon points="793.36,487.24 833.96,632.38 737.51,758.55 560.51,791.85 406.64,712.76 366.04,567.62 462.49,441.45 639.49,408.15" fill="#5a189a" fill-opacity="0.388" stroke="#ffffff" stroke-opacity="0.18" stroke-width="2.0" />
  <polygon points="736.45,574.33 718.61,660.97 631.3,711.89 525.65,697.26 463.55,625.67 481.39,539.03 568.7,488.11 674.35,502.74" fill="#02060a" fill-opacity="0.175" stroke="#5a189a" stroke-opacity="0.35" stroke-width="1" />
  <line x1="639.49" y1="408.15" x2="736.45" y2="574.33" stroke="#5a189a" stroke-opacity="0.35" stroke-width="1.2" />
  <polygon points="660.62,439.03 781.67,521.32 796.3,649.71 695.95,748.97 539.38,760.97 418.33,678.68 403.7,550.29 504.05,451.03" fill="#3c096c" fill-opacity="0.35" stroke="#ffffff" stroke-opacity="0.18" stroke-width="2.5" />
  <polygon points="677.36,523.48 720.69,590.75 693.32,663.44 611.28,698.97 522.64,676.52 479.31,609.25 506.68,536.56 588.72,501.03" fill="#02060a" fill-opacity="0.158" stroke="#3c096c" stroke-opacity="0.35" stroke-width="1" />
  <line x1="660.62" y1="439.03" x2="720.69" y2="590.75" stroke="#3c096c" stroke-opacity="0.35" stroke-width="1.2" />
  <polygon points="654.9,464.92 755.3,536.31 764.73,645.01 677.67,727.35 545.1,735.08 444.7,663.69 435.27,554.99 522.33,472.65" fill="#240046" fill-opacity="0.312" stroke="#ffffff" stroke-opacity="0.18" stroke-width="1.5" />
  <polygon points="667.12,536.53 702.19,594.04 677.4,655.04 607.27,683.8 532.88,663.47 497.81,605.96 522.6,544.96 592.73,516.2" fill="#02060a" fill-opacity="0.14" stroke="#240046" stroke-opacity="0.35" stroke-width="1" />
  <line x1="755.3" y1="536.31" x2="677.4" y2="655.04" stroke="#240046" stroke-opacity="0.35" stroke-width="1.2" />
  <polygon points="740.26,582.79 714.02,669.16 620.99,715.01 515.66,693.49 459.74,617.21 485.98,530.84 579.01,484.99 684.34,506.51" fill="#9d4edd" fill-opacity="0.275" stroke="#ffffff" stroke-opacity="0.18" stroke-width="2.0" />
  <polygon points="681.19,616.59 643.11,658.81 579.77,666.58 528.29,635.35 518.81,583.41 556.89,541.19 620.23,533.42 671.71,564.65" fill="#02060a" fill-opacity="0.124" stroke="#9d4edd" stroke-opacity="0.35" stroke-width="1" />
  <line x1="620.99" y1="715.01" x2="528.29" y2="635.35" stroke="#9d4edd" stroke-opacity="0.35" stroke-width="1.2" />
  <polygon points="707.29,580.09 693.03,648.13 624.28,687.98 541.3,676.28 492.71,619.91 506.97,551.87 575.72,512.02 658.7,523.72" fill="#7b2cbf" fill-opacity="0.238" stroke="#ffffff" stroke-opacity="0.18" stroke-width="2.5" />
  <polygon points="663.96,609.01 637.46,643.46 589.01,652.45 547.0,630.71 536.04,590.99 562.54,556.54 610.99,547.55 653.0,569.29" fill="#02060a" fill-opacity="0.107" stroke="#7b2cbf" stroke-opacity="0.35" stroke-width="1" />
  </g>
  <text x="600.0" y="1140" text-anchor="middle" fill="#b7c0cc" font-family="monospace" font-size="20">seed:4232543041617543626</text>
</svg>
