<svg xmlns="http://www.w3.org/2000/svg" width="1200" height="1200" viewBox="0 0 1200 1200">

  <defs>
    <linearGradient id="bg" x1="0%" y1="0%" x2="100%" y2="100%">
      <stop offset="0%" stop-color="#090b10" />
      <stop offset="100%" stop-color="#151922" />
    </linearGradient>
    <linearGradient id="oxide" x1="0%" y1="0%" x2="100%" y2="100%">
      <stop offset="0%" stop-color="#5a189a" stop-opacity="0.4297" />
      <stop offset="35%" stop-color="#7b2cbf" stop-opacity="0.5031" />
      <stop offset="70%" stop-color="#9d4edd" stop-opacity="0.5899" />
      <stop offset="100%" stop-color="#80ed99" stop-opacity="0.7266" />
    </linearGradient>
    <filter id="softGlow">
      <feGaussianBlur stdDeviation="4" result="blur" />
      <feMerge>
        <feMergeNode in="blur" />
        <feMergeNode in="SourceGraphic" />
      </feMerge>
    </filter>
  </defs>
  <rect width="100%" height="100%" fill="url(#bg)" />
  <g filter="url(#softGlow)">
  <g id="bismuth-crystal" class="bismuth-crystal hopper-crystal bismuth-growth"><g class="hopper-tower"><g class="hopper-step"><g class="iso-cuboid growth-terrace" opacity="1.000"><polygon class="left-face" points="540.42,821.38 602.17,787.85 602.17,763.73 540.42,797.25" fill="#4d217e" stroke="#c6e3f1" stroke-width="1.69" /><polygon class="right-face" points="666.02,821.38 727.77,787.85 727.77,763.73 666.02,797.25" fill="#6a3899" stroke="#c6e3f1" stroke-width="1.69" /><polygon class="top-face" points="540.42,797.25 666.02,797.25 727.77,763.73 602.17,763.73" fill="#9872c2" stroke="#c6e3f1" stroke-width="1.69" /><polygon class="oxide-band" points="544.42,797.85 662.02,797.85 724.97,763.93 604.97,763.93" fill="none" stroke="#a1ee95" stroke-width="1.34" stroke-opacity="0.432" /></g><g class="iso-cuboid hopper-recess" opacity="0.980"><polygon class="left-face" points="556.20,812.73 614.39,781.14 614.39,769.56 556.20,801.15" fill="#391c62" stroke="#c6e3f1" stroke-width="1.44" /><polygon class="right-face" points="660.49,812.73 718.68,781.14 718.68,769.56 660.49,801.15" fill="#48296b" stroke="#c6e3f1" stroke-width="1.44" /><polygon class="top-face" points="556.20,801.15 660.49,801.15 718.68,769.56 614.39,769.56" fill="#322b4d" stroke="#c6e3f1" stroke-width="1.44" /><polygon class="oxide-band" points="560.20,801.75 656.49,801.75 715.88,769.76 617.19,769.76" fill="none" stroke="#a1ee95" stroke-width="1.09" stroke-opacity="0.432" /></g></g><g class="hopper-step"><g class="iso-cuboid growth-terrace" opacity="1.000"><polygon class="left-face" points="544.93,799.53 605.40,766.70 605.40,742.58 544.93,775.41" fill="#4d217e" stroke="#c6e3f1" stroke-width="1.69" /><polygon class="right-face" points="657.53,799.53 718.00,766.70 718.00,742.58 657.53,775.41" fill="#6a3899" stroke="#c6e3f1" stroke-width="1.69" /><polygon class="top-face" points="544.93,775.41 657.53,775.41 718.00,742.58 605.40,742.58" fill="#9872c2" stroke="#c6e3f1" stroke-width="1.69" /><polygon class="oxide-band" points="548.93,776.01 653.53,776.01 715.20,742.78 608.20,742.78" fill="none" stroke="#a1ee95" stroke-width="1.34" stroke-opacity="0.432" /></g><g class="iso-cuboid hopper-recess" opacity="0.980"><polygon class="left-face" points="561.91,790.23 617.97,759.80 617.97,748.22 561.91,778.65" fill="#391c62" stroke="#c6e3f1" stroke-width="1.44" /><polygon class="right-face" points="650.80,790.23 706.85,759.80 706.85,748.22 650.80,778.65" fill="#48296b" stroke="#c6e3f1" stroke-width="1.44" /><polygon class="top-face" points="561.91,778.65 650.80,778.65 706.85,748.22 617.97,748.22" fill="#322b4d" stroke="#c6e3f1" stroke-width="1.44" /><polygon class="oxide-band" points="565.91,779.25 646.80,779.25 704.05,748.42 620.77,748.42" fill="none" stroke="#a1ee95" stroke-width="1.09" stroke-opacity="0.432" /></g></g><g class="hopper-step"><g class="iso-cuboid growth-terrace" opacity="1.000"><polygon class="left-face" points="554.78,779.98 613.96,747.84 613.96,723.72 554.78,755.85" fill="#4d217e" stroke="#c6e3f1" stroke-width="1.69" /><polygon class="right-face" points="654.38,779.98 713.56,747.84 713.56,723.72 654.38,755.85" fill="#6a3899" stroke="#c6e3f1" stroke-width="1.69" /><polygon class="top-face" points="554.78,755.85 654.38,755.85 713.56,723.72 613.96,723.72" fill="#9872c2" stroke="#c6e3f1" stroke-width="1.69" /><polygon class="oxide-band" points="558.78,756.45 650.38,756.45 710.76,723.92 616.76,723.92" fill="none" stroke="#a1ee95" stroke-width="1.34" stroke-opacity="0.432" /></g><g class="iso-cuboid hopper-recess" opacity="0.980"><polygon class="left-face" points="572.96,770.01 626.65,740.86 626.65,729.28 572.96,758.43" fill="#391c62" stroke="#c6e3f1" stroke-width="1.44" /><polygon class="right-face" points="646.45,770.01 700.14,740.86 700.14,729.28 646.45,758.43" fill="#48296b" stroke="#c6e3f1" stroke-width="1.44" /><polygon class="top-face" points="572.96,758.43 646.45,758.43 700.14,729.28 626.65,729.28" fill="#322b4d" stroke="#c6e3f1" stroke-width="1.44" /><polygon class="oxide-band" points="576.96,759.03 642.45,759.03 697.34,729.48 629.45,729.48" fill="none" stroke="#a1ee95" stroke-width="1.09" stroke-opacity="0.432" /></g></g><g class="hopper-step"><g class="iso-cuboid growth-terrace" opacity="1.000"><polygon class="left-face" points="568.22,761.96 626.12,730.52 626.12,706.39 568.22,737.83" fill="#4d217e" stroke="#c6e3f1" stroke-width="1.69" /><polygon class="right-face" points="654.82,761.96 712.72,730.52 712.72,706.39 654.82,737.83" fill="#6a3899" stroke="#c6e3f1" stroke-width="1.69" /><polygon class="top-face" points="568.22,737.83 654.82,737.83 712.72,706.39 626.12,706.39" fill="#9872c2" stroke="#c6e3f1" stroke-width="1.69" /><polygon class="oxide-band" points="572.22,738.43 650.82,738.43 709.92,706.59 628.92,706.59" fill="none" stroke="#a1ee95" stroke-width="1.34" stroke-opacity="0.432" /></g><g class="iso-cuboid hopper-recess" opacity="0.980"><polygon class="left-face" points="587.60,751.33 638.60,723.64 638.60,712.06 587.60,739.75" fill="#391c62" stroke="#c6e3f1" stroke-width="1.44" /><polygon class="right-face" points="645.68,751.33 696.69,723.64 696.69,712.06 645.68,739.75" fill="#48296b" stroke="#c6e3f1" stroke-width="1.44" /><polygon class="top-face" points="587.60,739.75 645.68,739.75 696.69,712.06 638.60,712.06" fill="#322b4d" stroke="#c6e3f1" stroke-width="1.44" /><polygon class="oxide-band" points="591.60,740.35 641.68,740.35 693.89,712.26 641.40,712.26" fill="none" stroke="#a1ee95" stroke-width="1.09" stroke-opacity="0.432" /></g></g><g class="hopper-step"><g class="iso-cuboid growth-terrace" opacity="1.000"><polygon class="left-face" points="580.00,743.23 636.63,712.49 636.63,688.36 580.00,719.10" fill="#4d217e" stroke="#c6e3f1" stroke-width="1.69" /><polygon class="right-face" points="653.60,743.23 710.23,712.49 710.23,688.36 653.60,719.10" fill="#6a3899" stroke="#c6e3f1" stroke-width="1.69" /><polygon class="top-face" points="580.00,719.10 653.60,719.10 710.23,688.36 636.63,688.36" fill="#9872c2" stroke="#c6e3f1" stroke-width="1.69" /><polygon class="oxide-band" points="584.00,719.70 649.60,719.70 707.43,688.56 639.43,688.56" fill="none" stroke="#a1ee95" stroke-width="1.34" stroke-opacity="0.432" /></g><g class="iso-cuboid hopper-recess" opacity="0.980"><polygon class="left-face" points="600.59,731.95 648.40,705.99 648.40,694.41 600.59,720.37" fill="#391c62" stroke="#c6e3f1" stroke-width="1.44" /><polygon class="right-face" points="643.27,731.95 691.09,705.99 691.09,694.41 643.27,720.37" fill="#48296b" stroke="#c6e3f1" stroke-width="1.44" /><polygon class="top-face" points="600.59,720.37 643.27,720.37 691.09,694.41 648.40,694.41" fill="#322b4d" stroke="#c6e3f1" stroke-width="1.44" /><polygon class="oxide-band" points="604.59,720.97 639.27,720.97 688.29,694.61 651.20,694.61" fill="none" stroke="#a1ee95" stroke-width="1.09" stroke-opacity="0.432" /></g></g><g class="hopper-step"><g class="iso-cuboid growth-terrace" opacity="1.000"><polygon class="left-face" points="587.83,722.81 643.18,692.76 643.18,668.64 587.83,698.68" fill="#4d217e" stroke="#c6e3f1" stroke-width="1.69" /><polygon class="right-face" points="648.43,722.81 703.78,692.76 703.78,668.64 648.43,698.68" fill="#6a3899" stroke="#c6e3f1" stroke-width="1.69" /><polygon class="top-face" points="587.83,698.68 648.43,698.68 703.78,668.64 643.18,668.64" fill="#9872c2" stroke="#c6e3f1" stroke-width="1.69" /><polygon class="oxide-band" points="591.83,699.28 644.43,699.28 700.98,668.84 645.98,668.84" fill="none" stroke="#a1ee95" stroke-width="1.34" stroke-opacity="0.432" /></g><g class="iso-cuboid hopper-recess" opacity="0.980"><polygon class="left-face" points="607.50,712.03 652.78,687.45 652.78,675.86 607.50,700.45" fill="#391c62" stroke="#c6e3f1" stroke-width="1.44" /><polygon class="right-face" points="639.02,712.03 684.29,687.45 684.29,675.86 639.02,700.45" fill="#48296b" stroke="#c6e3f1" stroke-width="1.44" /><polygon class="top-face" points="607.50,700.45 639.02,700.45 684.29,675.86 652.78,675.86" fill="#322b4d" stroke="#c6e3f1" stroke-width="1.44" /><polygon class="oxide-band" points="611.50,701.05 635.02,701.05 681.49,676.06 655.58,676.06" fill="none" stroke="#a1ee95" stroke-width="1.09" stroke-opacity="0.432" /></g></g><g class="hopper-step"><g class="iso-cuboid growth-terrace" opacity="1.000"><polygon class="left-face" points="594.95,702.08 649.01,672.73 649.01,648.60 594.95,677.95" fill="#4d217e" stroke="#c6e3f1" stroke-width="1.69" /><polygon class="right-face" points="642.55,702.08 696.61,672.73 696.61,648.60 642.55,677.95" fill="#6a3899" stroke="#c6e3f1" stroke-width="1.69" /><polygon class="top-face" points="594.95,677.95 642.55,677.95 696.61,648.60 649.01,648.60" fill="#9872c2" stroke="#c6e3f1" stroke-width="1.69" /><polygon class="oxide-band" points="598.95,678.55 638.55,678.55 693.81,648.80 651.81,648.80" fill="none" stroke="#a1ee95" stroke-width="1.34" stroke-opacity="0.432" /></g><g class="iso-cuboid hopper-recess" opacity="0.980"><polygon class="left-face" points="611.50,693.01 655.49,669.13 655.49,657.55 611.50,681.43" fill="#391c62" stroke="#c6e3f1" stroke-width="1.44" /><polygon class="right-face" points="636.25,693.01 680.24,669.13 680.24,657.55 636.25,681.43" fill="#48296b" stroke="#c6e3f1" stroke-width="1.44" /><polygon class="top-face" points="611.50,681.43 636.25,681.43 680.24,657.55 655.49,657.55" fill="#322b4d" stroke="#c6e3f1" stroke-width="1.44" /><polygon class="oxide-band" points="615.50,682.03 632.25,682.03 677.44,657.75 658.29,657.75" fill="none" stroke="#a1ee95" stroke-width="1.09" stroke-opacity="0.432" /></g></g><g class="hopper-step"><g class="iso-cuboid growth-terrace" opacity="1.000"><polygon class="left-face" points="608.85,684.26 661.63,655.61 661.63,631.48 608.85,660.14" fill="#4d217e" stroke="#c6e3f1" stroke-width="1.69" /><polygon class="right-face" points="643.45,684.26 696.23,655.61 696.23,631.48 643.45,660.14" fill="#6a3899" stroke="#c6e3f1" stroke-width="1.69" /><polygon class="top-face" points="608.85,660.14 643.45,660.14 696.23,631.48 661.63,631.48" fill="#9872c2" stroke="#c6e3f1" stroke-width="1.69" /><polygon class="oxide-band" points="612.85,660.74 639.45,660.74 693.43,631.68 664.43,631.68" fill="none" stroke="#a1ee95" stroke-width="1.34" stroke-opacity="0.432" /></g><g class="iso-cuboid hopper-recess" opacity="0.980"><polygon class="left-face" points="622.28,676.91 665.00,653.72 665.00,642.14 622.28,665.33" fill="#391c62" stroke="#c6e3f1" stroke-width="1.44" /><polygon class="right-face" points="640.28,676.91 682.99,653.72 682.99,642.14 640.28,665.33" fill="#48296b" stroke="#c6e3f1" stroke-width="1.44" /><polygon class="top-face" points="622.28,665.33 640.28,665.33 682.99,642.14 665.00,642.14" fill="#322b4d" stroke="#c6e3f1" stroke-width="1.44" /><polygon class="oxide-band" points="626.28,665.93 636.28,665.93 680.19,642.34 667.80,642.34" fill="none" stroke="#a1ee95" stroke-width="1.09" stroke-opacity="0.432" /></g></g><g class="hopper-step"><g class="iso-cuboid growth-terrace" opacity="1.000"><polygon class="left-face" points="620.56,665.50 672.06,637.54 672.06,613.42 620.56,641.38" fill="#4d217e" stroke="#c6e3f1" stroke-width="1.69" /><polygon class="right-face" points="642.56,665.50 694.06,637.54 694.06,613.42 642.56,641.38" fill="#6a3899" stroke="#c6e3f1" stroke-width="1.69" /><polygon class="top-face" points="620.56,641.38 642.56,641.38 694.06,613.42 672.06,613.42" fill="#9872c2" stroke="#c6e3f1" stroke-width="1.69" /><polygon class="oxide-band" points="624.56,641.98 638.56,641.98 691.26,613.62 674.86,613.62" fill="none" stroke="#a1ee95" stroke-width="1.34" stroke-opacity="0.432" /></g><g class="iso-cuboid hopper-recess" opacity="0.980"><polygon class="left-face" points="630.97,659.81 672.40,637.32 672.40,625.74 630.97,648.23" fill="#391c62" stroke="#c6e3f1" stroke-width="1.44" /><polygon class="right-face" points="642.97,659.81 684.40,637.32 684.40,625.74 642.97,648.23" fill="#48296b" stroke="#c6e3f1" stroke-width="1.44" /><polygon class="top-face" points="630.97,648.23 642.97,648.23 684.40,625.74 672.40,625.74" fill="#322b4d" stroke="#c6e3f1" stroke-width="1.44" /><polygon class="oxide-band" points="634.97,648.83 638.97,648.83 681.60,625.94 675.20,625.94" fill="none" stroke="#a1ee95" stroke-width="1.09" stroke-opacity="0.432" /></g></g></g><g class="side-growth side-growth-east"><g class="iso-cuboid side-growth" opacity="0.960"><polygon class="left-face" points="696.97,793.00 734.25,772.76 734.25,744.76 696.97,765.00" fill="#451f72" stroke="#c6e3f1" stroke-width="1.49" /><polygon class="right-face" points="742.86,793.00 780.14,772.76 780.14,744.76 742.86,765.00" fill="#583182" stroke="#c6e3f1" stroke-width="1.49" /><polygon class="top-face" points="696.97,765.00 742.86,765.00 780.14,744.76 734.25,744.76" fill="#9981bd" stroke="#c6e3f1" stroke-width="1.49" /><polygon class="oxide-band" points="701.45,765.68 738.38,765.68 777.00,744.99 737.39,744.99" fill="none" stroke="#a1ee95" stroke-width="1.14" stroke-opacity="0.432" /></g><g class="iso-cuboid side-growth" opacity="0.960"><polygon class="left-face" points="731.26,786.28 766.68,767.05 766.68,741.65 731.26,760.88" fill="#451f72" stroke="#c6e3f1" stroke-width="1.49" /><polygon class="right-face" points="773.15,786.28 808.57,767.05 808.57,741.65 773.15,760.88" fill="#583182" stroke="#c6e3f1" stroke-width="1.49" /><polygon class="top-face" points="731.26,760.88 773.15,760.88 808.57,741.65 766.68,741.65" fill="#9a8bb9" stroke="#c6e3f1" stroke-width="1.49" /><polygon class="oxide-band" points="735.32,761.49 769.08,761.49 805.72,741.85 769.52,741.85" fill="none" stroke="#a1ee95" stroke-width="1.14" stroke-opacity="0.432" /></g><g class="iso-cuboid side-growth" opacity="0.960"><polygon class="left-face" points="771.18,776.02 804.73,757.81 804.73,735.01 771.18,753.22" fill="#451f72" stroke="#c6e3f1" stroke-width="1.49" /><polygon class="right-face" points="809.06,776.02 842.62,757.81 842.62,735.01 809.06,753.22" fill="#583182" stroke="#c6e3f1" stroke-width="1.49" /><polygon class="top-face" points="771.18,753.22 809.06,753.22 842.62,735.01 804.73,735.01" fill="#9b95b5" stroke="#c6e3f1" stroke-width="1.49" /><polygon class="oxide-band" points="775.18,753.82 805.06,753.82 839.82,735.21 807.53,735.21" fill="none" stroke="#a1ee95" stroke-width="1.14" stroke-opacity="0.432" /></g></g><g class="side-growth side-growth-west"><g class="iso-cuboid side-growth" opacity="0.960"><polygon class="left-face" points="516.03,807.53 553.32,787.28 553.32,759.28 516.03,779.53" fill="#451f72" stroke="#c6e3f1" stroke-width="1.49" /><polygon class="right-face" points="561.92,807.53 599.21,787.28 599.21,759.28 561.92,779.53" fill="#583182" stroke="#c6e3f1" stroke-width="1.49" /><polygon class="top-face" points="516.03,779.53 561.92,779.53 599.21,759.28 553.32,759.28" fill="#9981bd" stroke="#c6e3f1" stroke-width="1.49" /><polygon class="oxide-band" points="520.51,780.20 557.44,780.20 596.07,759.51 556.46,759.51" fill="none" stroke="#a1ee95" stroke-width="1.14" stroke-opacity="0.432" /></g><g class="iso-cuboid side-growth" opacity="0.960"><polygon class="left-face" points="480.96,812.84 516.38,793.61 516.38,768.21 480.96,787.44" fill="#451f72" stroke="#c6e3f1" stroke-width="1.49" /><polygon class="right-face" points="522.84,812.84 558.26,793.61 558.26,768.21 522.84,787.44" fill="#583182" stroke="#c6e3f1" stroke-width="1.49" /><polygon class="top-face" points="480.96,787.44 522.84,787.44 558.26,768.21 516.38,768.21" fill="#9a8bb9" stroke="#c6e3f1" stroke-width="1.49" /><polygon class="oxide-band" points="485.02,788.05 518.78,788.05 555.42,768.41 519.22,768.41" fill="none" stroke="#a1ee95" stroke-width="1.14" stroke-opacity="0.432" /></g><g class="iso-cuboid side-growth" opacity="0.960"><polygon class="left-face" points="450.05,820.96 483.61,802.75 483.61,779.95 450.05,798.16" fill="#451f72" stroke="#c6e3f1" stroke-width="1.49" /><polygon class="right-face" points="487.94,820.96 521.49,802.75 521.49,779.95 487.94,798.16" fill="#583182" stroke="#c6e3f1" stroke-width="1.49" /><polygon class="top-face" points="450.05,798.16 487.94,798.16 521.49,779.95 483.61,779.95" fill="#9b95b5" stroke="#c6e3f1" stroke-width="1.49" /><polygon class="oxide-band" points="454.05,798.76 483.94,798.76 518.69,780.15 486.41,780.15" fill="none" stroke="#a1ee95" stroke-width="1.14" stroke-opacity="0.432" /></g></g><g class="side-growth side-growth-north"><g class="iso-cuboid side-growth" opacity="0.960"><polygon class="left-face" points="614.13,764.18 651.41,743.94 651.41,715.94 614.13,736.18" fill="#451f72" stroke="#c6e3f1" stroke-width="1.49" /><polygon class="right-face" points="660.02,764.18 697.30,743.94 697.30,715.94 660.02,736.18" fill="#583182" stroke="#c6e3f1" stroke-width="1.49" /><polygon class="top-face" points="614.13,736.18 660.02,736.18 697.30,715.94 651.41,715.94" fill="#9981bd" stroke="#c6e3f1" stroke-width="1.49" /><polygon class="oxide-band" points="618.61,736.85 655.54,736.85 694.16,716.16 654.55,716.16" fill="none" stroke="#a1ee95" stroke-width="1.14" stroke-opacity="0.432" /></g><g class="iso-cuboid side-growth" opacity="0.960"><polygon class="left-face" points="622.91,744.78 658.33,725.55 658.33,700.15 622.91,719.38" fill="#451f72" stroke="#c6e3f1" stroke-width="1.49" /><polygon class="right-face" points="664.80,744.78 700.22,725.55 700.22,700.15 664.80,719.38" fill="#583182" stroke="#c6e3f1" stroke-width="1.49" /><polygon class="top-face" points="622.91,719.38 664.80,719.38 700.22,700.15 658.33,700.15" fill="#9a8bb9" stroke="#c6e3f1" stroke-width="1.49" /><polygon class="oxide-band" points="626.97,719.99 660.73,719.99 697.37,700.35 661.18,700.35" fill="none" stroke="#a1ee95" stroke-width="1.14" stroke-opacity="0.432" /></g></g><g class="side-growth side-growth-south"><g class="iso-cuboid side-growth" opacity="0.960"><polygon class="left-face" points="601.24,833.99 638.53,813.75 638.53,785.75 601.24,805.99" fill="#451f72" stroke="#c6e3f1" stroke-width="1.49" /><polygon class="right-face" points="647.13,833.99 684.42,813.75 684.42,785.75 647.13,805.99" fill="#583182" stroke="#c6e3f1" stroke-width="1.49" /><polygon class="top-face" points="601.24,805.99 647.13,805.99 684.42,785.75 638.53,785.75" fill="#9981bd" stroke="#c6e3f1" stroke-width="1.49" /><polygon class="oxide-band" points="605.72,806.66 642.65,806.66 681.28,785.97 641.67,785.97" fill="none" stroke="#a1ee95" stroke-width="1.14" stroke-opacity="0.432" /></g><g class="iso-cuboid side-growth" opacity="0.960"><polygon class="left-face" points="586.59,851.37 622.01,832.14 622.01,806.74 586.59,825.97" fill="#451f72" stroke="#c6e3f1" stroke-width="1.49" /><polygon class="right-face" points="628.48,851.37 663.90,832.14 663.90,806.74 628.48,825.97" fill="#583182" stroke="#c6e3f1" stroke-width="1.49" /><polygon class="top-face" points="586.59,825.97 628.48,825.97 663.90,806.74 622.01,806.74" fill="#9a8bb9" stroke="#c6e3f1" stroke-width="1.49" /><polygon class="oxide-band" points="590.65,826.58 624.41,826.58 661.05,806.94 624.85,806.94" fill="none" stroke="#a1ee95" stroke-width="1.14" stroke-opacity="0.432" /></g></g><g class="corner-growth"><g class="iso-cuboid edge-growth" opacity="0.950"><polygon class="left-face" points="513.42,800.48 540.22,785.93 540.22,763.93 513.42,778.48" fill="#4d217e" stroke="#c6e3f1" stroke-width="1.44" /><polygon class="right-face" points="543.42,800.48 570.22,785.93 570.22,763.93 543.42,778.48" fill="#6a3899" stroke="#c6e3f1" stroke-width="1.44" /><polygon class="top-face" points="513.42,778.48 543.42,778.48 570.22,763.93 540.22,763.93" fill="#9a8db8" stroke="#c6e3f1" stroke-width="1.44" /><polygon class="oxide-band" points="517.42,779.08 539.42,779.08 567.42,764.13 543.02,764.13" fill="none" stroke="#a1ee95" stroke-width="1.09" stroke-opacity="0.432" /></g><g class="iso-cuboid edge-growth" opacity="0.950"><polygon class="left-face" points="669.74,793.98 694.68,780.44 694.68,760.44 669.74,773.98" fill="#4d217e" stroke="#c6e3f1" stroke-width="1.44" /><polygon class="right-face" points="696.74,793.98 721.68,780.44 721.68,760.44 696.74,773.98" fill="#6a3899" stroke="#c6e3f1" stroke-width="1.44" /><polygon class="top-face" points="669.74,773.98 696.74,773.98 721.68,760.44 694.68,760.44" fill="#9b97b4" stroke="#c6e3f1" stroke-width="1.44" /><polygon class="oxide-band" points="673.74,774.58 692.74,774.58 718.88,760.64 697.48,760.64" fill="none" stroke="#a1ee95" stroke-width="1.09" stroke-opacity="0.432" /></g><g class="iso-cuboid edge-growth" opacity="0.950"><polygon class="left-face" points="515.92,823.47 542.71,808.92 542.71,790.92 515.92,805.47" fill="#4d217e" stroke="#c6e3f1" stroke-width="1.44" /><polygon class="right-face" points="539.92,823.47 566.71,808.92 566.71,790.92 539.92,805.47" fill="#6a3899" stroke="#c6e3f1" stroke-width="1.44" /><polygon class="top-face" points="515.92,805.47 539.92,805.47 566.71,790.92 542.71,790.92" fill="#9ba1b1" stroke="#c6e3f1" stroke-width="1.44" /><polygon class="oxide-band" points="519.92,806.07 535.92,806.07 563.91,791.12 545.51,791.12" fill="none" stroke="#a1ee95" stroke-width="1.09" stroke-opacity="0.432" /></g><g class="iso-cuboid edge-growth" opacity="0.950"><polygon class="left-face" points="672.56,834.96 697.49,821.43 697.49,805.43 672.56,818.96" fill="#4d217e" stroke="#c6e3f1" stroke-width="1.44" /><polygon class="right-face" points="702.56,834.96 727.49,821.43 727.49,805.43 702.56,818.96" fill="#6a3899" stroke="#c6e3f1" stroke-width="1.44" /><polygon class="top-face" points="672.56,818.96 702.56,818.96 727.49,805.43 697.49,805.43" fill="#9a8db8" stroke="#c6e3f1" stroke-width="1.44" /><polygon class="oxide-band" points="676.56,819.56 698.56,819.56 724.69,805.63 700.29,805.63" fill="none" stroke="#a1ee95" stroke-width="1.09" stroke-opacity="0.432" /></g><g class="iso-cuboid edge-growth" opacity="0.950"><polygon class="left-face" points="496.69,786.48 523.48,771.93 523.48,749.93 496.69,764.48" fill="#4d217e" stroke="#c6e3f1" stroke-width="1.44" /><polygon class="right-face" points="523.69,786.48 550.48,771.93 550.48,749.93 523.69,764.48" fill="#6a3899" stroke="#c6e3f1" stroke-width="1.44" /><polygon class="top-face" points="496.69,764.48 523.69,764.48 550.48,749.93 523.48,749.93" fill="#9b97b4" stroke="#c6e3f1" stroke-width="1.44" /><polygon class="oxide-band" points="500.69,765.08 519.69,765.08 547.68,750.13 526.28,750.13" fill="none" stroke="#a1ee95" stroke-width="1.09" stroke-opacity="0.432" /></g></g></g>
  </g>
  <text x="600.0" y="1134" text-anchor="middle" fill="#c7d0dc" font-family="monospace" font-size="18">ed7400a760e1b79b0422c0…</text>
  <text x="600.0" y="1162" text-anchor="middle" fill="#7d8896" font-family="monospace" font-size="14">hopper / violet_green / common</text>
</svg>
