<svg xmlns="http://www.w3.org/2000/svg" width="860" height="540" viewBox="0 0 860 540">
  <rect width="100%" height="100%" fill="#ffffff" />
  <rect x="24" y="24" width="812" height="492" rx="22" ry="22" fill="#ffffff" stroke="#151515" stroke-width="3" />
  <text x="54" y="84" fill="#111111" font-family="Segoe UI, Arial, sans-serif" font-size="34" font-weight="700">Crystal Receipt</text>
  <text x="54" y="118" fill="#404040" font-family="Segoe UI, Arial, sans-serif" font-size="20">Visual artifact for execution receipt</text>
  <line x1="54" y1="142" x2="806" y2="142" stroke="#151515" stroke-width="2" />

  <text x="54" y="190" fill="#111111" font-family="Segoe UI, Arial, sans-serif" font-size="18" font-weight="700">Receipt ID</text>
  <text x="54" y="218" fill="#202020" font-family="Consolas, monospace" font-size="21">sess_demo_2026_06_04_001</text>

  <text x="54" y="274" fill="#111111" font-family="Segoe UI, Arial, sans-serif" font-size="18" font-weight="700">Verifier Result</text>
  <text x="54" y="302" fill="#202020" font-family="Consolas, monospace" font-size="22">OK</text>

  <text x="54" y="358" fill="#111111" font-family="Segoe UI, Arial, sans-serif" font-size="18" font-weight="700">Canonical Receipt Hash</text>
  <text x="54" y="386" fill="#202020" font-family="Consolas, monospace" font-size="20">ed7400a760e1b79b…</text>

  <text x="54" y="442" fill="#111111" font-family="Segoe UI, Arial, sans-serif" font-size="18" font-weight="700">Artifact Hash</text>
  <text x="54" y="470" fill="#202020" font-family="Consolas, monospace" font-size="20">e3b7cdf94635b7ff…</text>

  <text x="470" y="358" fill="#111111" font-family="Segoe UI, Arial, sans-serif" font-size="18" font-weight="700">Ruleset / Generator</text>
  <text x="470" y="386" fill="#202020" font-family="Consolas, monospace" font-size="18">receipt-derived-v0.2 / 0.2</text>

  <rect x="470" y="420" width="290" height="38" rx="10" ry="10" fill="#ffffff" stroke="#151515" stroke-width="2" />
  <text x="488" y="445" fill="#111111" font-family="Segoe UI, Arial, sans-serif" font-size="18" font-weight="700">Visual artifact, not verifier</text>

  <g transform="translate(650 265)">
    <polygon points="-78,-60 78,-60 56,-18 56,42 18,78 -18,78 -56,42 -56,-18" fill="none" stroke="#151515" stroke-width="4" />
    <polygon points="-52,-38 52,-38 38,-10 38,28 12,54 -12,54 -38,28 -38,-10" fill="none" stroke="#151515" stroke-width="3" />
    <rect x="-18" y="-56" width="36" height="112" rx="16" ry="16" fill="#ffffff" stroke="#151515" stroke-width="2.4" />
    <polygon points="0,-12 18,0 0,14 -18,0" fill="#ffffff" stroke="#151515" stroke-width="2" />
    <line x1="-40" y1="-22" x2="-56" y2="-42" stroke="#151515" stroke-width="2.4" />
    <line x1="40" y1="-22" x2="56" y2="-42" stroke="#151515" stroke-width="2.4" />
    <line x1="-32" y1="32" x2="-48" y2="52" stroke="#151515" stroke-width="2.4" />
    <line x1="32" y1="32" x2="48" y2="52" stroke="#151515" stroke-width="2.4" />
  </g>

</svg>
