<svg xmlns="http://www.w3.org/2000/svg" width="1600" height="1000" viewBox="0 0 1600 1000">
  <rect width="100%" height="100%" fill="#090b14" />
  <rect x="20" y="20" width="1560" height="960" rx="28" ry="28" fill="#0f1724" stroke="#24364f" stroke-width="3" />
  <rect x="20" y="20" width="1560" height="8" fill="#67e8f9" rx="6" ry="6" />

  <text x="60" y="88" fill="#f8fbff" font-family="Segoe UI, Arial, sans-serif" font-size="44" font-weight="700">CRYSTAL RECEIPT</text>
  <text x="60" y="124" fill="#b7c4d8" font-family="Segoe UI, Arial, sans-serif" font-size="22">RECEIPT EVIDENCE -&gt; DETERMINISTIC CRYSTAL -&gt; VISUAL ARTIFACT</text>
<g class="hopper-crystal"><g class="isometric-block tower-block" opacity="1.000"><polygon points="766.33,300.00 778.40,292.58 778.40,341.34 766.33,348.76" fill="#56238c" stroke="#c1e2ed" stroke-width="1.82" /><polygon points="833.67,300.00 845.75,292.58 845.75,341.34 833.67,348.76" fill="#793fad" stroke="#c1e2ed" stroke-width="1.82" /><polygon points="766.33,300.00 833.67,300.00 845.75,292.58 778.40,292.58" fill="#9168bd" stroke="#c1e2ed" stroke-width="1.82" /></g><polygon class="hopper-band" points="774.41,303.23 825.59,303.23 832.59,298.93 781.41,298.93" fill="none" stroke="#a3ee95" stroke-opacity="0.443" stroke-width="1.52" /><g class="isometric-block tower-block" opacity="1.000"><polygon points="773.07,290.25 785.14,282.84 785.14,323.51 773.07,330.92" fill="#5d2993" stroke="#c1e2ed" stroke-width="1.82" /><polygon points="826.93,290.25 839.00,282.84 839.00,323.51 826.93,330.92" fill="#765ba5" stroke="#c1e2ed" stroke-width="1.82" /><polygon points="773.07,290.25 826.93,290.25 839.00,282.84 785.14,282.84" fill="#9466c3" stroke="#c1e2ed" stroke-width="1.82" /></g><polygon class="hopper-band" points="779.53,292.84 820.47,292.84 827.47,288.54 786.54,288.54" fill="none" stroke="#a3ee95" stroke-opacity="0.443" stroke-width="1.52" /><g class="isometric-block tower-block" opacity="1.000"><polygon points="779.81,280.51 791.89,273.09 791.89,305.67 779.81,313.09" fill="#5b4b8a" stroke="#c1e2ed" stroke-width="1.82" /><polygon points="820.19,280.51 832.26,273.09 832.26,305.67 820.19,313.09" fill="#6e5ca4" stroke="#c1e2ed" stroke-width="1.82" /><polygon points="779.81,280.51 820.19,280.51 832.26,273.09 791.89,273.09" fill="#9c6bcc" stroke="#c1e2ed" stroke-width="1.82" /></g><polygon class="hopper-band" points="784.66,282.44 815.34,282.44 822.35,278.14 791.66,278.14" fill="none" stroke="#a3ee95" stroke-opacity="0.443" stroke-width="1.52" /><g class="isometric-block tower-block" opacity="1.000"><polygon points="786.55,270.76 798.63,263.34 798.63,287.83 786.55,295.25" fill="#534c8b" stroke="#c1e2ed" stroke-width="1.82" /><polygon points="813.45,270.76 825.52,263.34 825.52,287.83 813.45,295.25" fill="#6d33a3" stroke="#c1e2ed" stroke-width="1.82" /><polygon points="786.55,270.76 813.45,270.76 825.52,263.34 798.63,263.34" fill="#92a3b4" stroke="#c1e2ed" stroke-width="1.82" /></g><polygon class="hopper-band" points="790.23,272.23 809.77,272.23 816.77,267.93 797.24,267.93" fill="none" stroke="#a3ee95" stroke-opacity="0.443" stroke-width="1.52" /><g class="isometric-block tower-block" opacity="1.000"><polygon points="789.42,261.01 801.49,253.60 801.49,269.99 789.42,277.41" fill="#541f8c" stroke="#c1e2ed" stroke-width="1.82" /><polygon points="810.58,261.01 822.65,253.60 822.65,269.99 810.58,277.41" fill="#7638af" stroke="#c1e2ed" stroke-width="1.82" /><polygon points="789.42,261.01 810.58,261.01 822.65,253.60 801.49,253.60" fill="#7e9cb1" stroke="#c1e2ed" stroke-width="1.82" /></g><polygon class="hopper-band" points="793.10,262.49 806.90,262.49 813.90,258.18 800.10,258.18" fill="none" stroke="#a3ee95" stroke-opacity="0.443" stroke-width="1.52" /><g class="isometric-block tower-block" opacity="1.000"><polygon points="789.42,251.27 801.49,243.85 801.49,255.81 789.42,263.23" fill="#60269a" stroke="#c1e2ed" stroke-width="1.82" /><polygon points="810.58,251.27 822.65,243.85 822.65,255.81 810.58,263.23" fill="#8343bb" stroke="#c1e2ed" stroke-width="1.82" /><polygon points="789.42,251.27 810.58,251.27 822.65,243.85 801.49,243.85" fill="#7a47af" stroke="#c1e2ed" stroke-width="1.82" /></g><polygon class="hopper-band" points="793.10,252.74 806.90,252.74 813.90,248.44 800.10,248.44" fill="none" stroke="#a3ee95" stroke-opacity="0.443" stroke-width="1.52" /><g class="isometric-block tower-block" opacity="1.000"><polygon points="789.42,241.52 801.49,234.10 801.49,246.06 789.42,253.48" fill="#7034a9" stroke="#c1e2ed" stroke-width="1.82" /><polygon points="810.58,241.52 822.65,234.10 822.65,246.06 810.58,253.48" fill="#7987a1" stroke="#c1e2ed" stroke-width="1.82" /><polygon points="789.42,241.52 810.58,241.52 822.65,234.10 801.49,234.10" fill="#894cc1" stroke="#c1e2ed" stroke-width="1.82" /></g><polygon class="hopper-band" points="793.10,242.99 806.90,242.99 813.90,238.69 800.10,238.69" fill="none" stroke="#a3ee95" stroke-opacity="0.443" stroke-width="1.52" /><g class="isometric-block tower-block" opacity="1.000"><polygon points="789.42,231.77 801.49,224.36 801.49,236.32 789.42,243.73" fill="#65778e" stroke="#c1e2ed" stroke-width="1.82" /><polygon points="810.58,231.77 822.65,224.36 822.65,236.32 810.58,243.73" fill="#6680a0" stroke="#c1e2ed" stroke-width="1.82" /><polygon points="789.42,231.77 810.58,231.77 822.65,224.36 801.49,224.36" fill="#9d5fd2" stroke="#c1e2ed" stroke-width="1.82" /></g><polygon class="hopper-band" points="793.10,233.25 806.90,233.25 813.90,228.94 800.10,228.94" fill="none" stroke="#a3ee95" stroke-opacity="0.443" stroke-width="1.52" /><g class="isometric-block side-block" opacity="0.940"><polygon points="734.13,292.98 744.03,286.90 744.03,302.54 734.13,308.62" fill="#5c4582" stroke="#c1e2ed" stroke-width="1.57" /><polygon points="759.89,292.98 769.79,286.90 769.79,302.54 759.89,308.62" fill="#4e3b6f" stroke="#c1e2ed" stroke-width="1.57" /><polygon points="734.13,292.98 759.89,292.98 769.79,286.90 744.03,286.90" fill="#8c63bc" stroke="#c1e2ed" stroke-width="1.57" /></g><g class="isometric-block side-block" opacity="0.940"><polygon points="727.92,285.96 737.82,279.88 737.82,294.14 727.92,300.22" fill="#694e92" stroke="#c1e2ed" stroke-width="1.57" /><polygon points="751.38,285.96 761.28,279.88 761.28,294.14 751.38,300.22" fill="#59427c" stroke="#c1e2ed" stroke-width="1.57" /><polygon points="727.92,285.96 751.38,285.96 761.28,279.88 737.82,279.88" fill="#a271d5" stroke="#c1e2ed" stroke-width="1.57" /></g><g class="isometric-block side-block" opacity="0.940"><polygon points="721.71,278.95 731.61,272.87 731.61,285.75 721.71,291.83" fill="#785c9e" stroke="#c1e2ed" stroke-width="1.57" /><polygon points="742.87,278.95 752.77,272.87 752.77,285.75 742.87,291.83" fill="#654e86" stroke="#c1e2ed" stroke-width="1.57" /><polygon points="721.71,278.95 742.87,278.95 752.77,272.87 731.61,272.87" fill="#b987e9" stroke="#c1e2ed" stroke-width="1.57" /></g><g class="isometric-block side-block" opacity="0.940"><polygon points="840.11,292.98 850.01,286.90 850.01,302.54 840.11,308.62" fill="#785c9e" stroke="#c1e2ed" stroke-width="1.57" /><polygon points="865.87,292.98 875.77,286.90 875.77,302.54 865.87,308.62" fill="#654e86" stroke="#c1e2ed" stroke-width="1.57" /><polygon points="840.11,292.98 865.87,292.98 875.77,286.90 850.01,286.90" fill="#b987e9" stroke="#c1e2ed" stroke-width="1.57" /></g><g class="isometric-block side-block" opacity="0.940"><polygon points="848.62,285.96 858.52,279.88 858.52,294.14 848.62,300.22" fill="#6b9d82" stroke="#c1e2ed" stroke-width="1.57" /><polygon points="872.08,285.96 881.98,279.88 881.98,294.14 872.08,300.22" fill="#5b846f" stroke="#c1e2ed" stroke-width="1.57" /><polygon points="848.62,285.96 872.08,285.96 881.98,279.88 858.52,279.88" fill="#a5f0bc" stroke="#c1e2ed" stroke-width="1.57" /></g><g class="isometric-block side-block" opacity="0.940"><polygon points="857.13,278.95 867.03,272.87 867.03,285.75 857.13,291.83" fill="#5a8f82" stroke="#c1e2ed" stroke-width="1.57" /><polygon points="878.29,278.95 888.19,272.87 888.19,285.75 878.29,291.83" fill="#4d796f" stroke="#c1e2ed" stroke-width="1.57" /><polygon points="857.13,278.95 878.29,278.95 888.19,272.87 867.03,272.87" fill="#8adabc" stroke="#c1e2ed" stroke-width="1.57" /></g></g>

  <rect x="50" y="160" width="460" height="700" rx="24" ry="24" fill="#121c2b" stroke="#2b3d59" stroke-width="2.5" />
  <text x="78" y="208" fill="#67e8f9" font-family="Segoe UI, Arial, sans-serif" font-size="24" font-weight="700">INPUT: RECEIPT EVIDENCE</text>
  <text x="78" y="252" fill="#f8fbff" font-family="Segoe UI, Arial, sans-serif" font-size="18" font-weight="700">SESSION_ID</text>
  <text x="78" y="278" fill="#d7e3f4" font-family="Consolas, monospace" font-size="18">sess_demo_2026_06_04_001</text>
  <text x="78" y="324" fill="#f8fbff" font-family="Segoe UI, Arial, sans-serif" font-size="18" font-weight="700">RECEIPT_HASH</text>
  <text x="78" y="350" fill="#d7e3f4" font-family="Consolas, monospace" font-size="18">rcpt_demo_...41e6dd</text>
  <text x="78" y="396" fill="#f8fbff" font-family="Segoe UI, Arial, sans-serif" font-size="18" font-weight="700">DIFF_HASH</text>
  <text x="78" y="422" fill="#d7e3f4" font-family="Consolas, monospace" font-size="18">diff_demo_...f0d145</text>
  <text x="78" y="468" fill="#f8fbff" font-family="Segoe UI, Arial, sans-serif" font-size="18" font-weight="700">EVENT_ROOT</text>
  <text x="78" y="494" fill="#d7e3f4" font-family="Consolas, monospace" font-size="18">event_root...a20c77</text>
  <text x="78" y="540" fill="#f8fbff" font-family="Segoe UI, Arial, sans-serif" font-size="18" font-weight="700">AGENT_ID</text>
  <text x="78" y="566" fill="#d7e3f4" font-family="Consolas, monospace" font-size="17">agent.stealth.local.demo</text>
  <text x="78" y="612" fill="#f8fbff" font-family="Segoe UI, Arial, sans-serif" font-size="18" font-weight="700">SCOPE / AUTHORITY</text>
  <text x="78" y="638" fill="#d7e3f4" font-family="Consolas, monospace" font-size="17">workspace-write / captured-evidence</text>
  <text x="78" y="684" fill="#f8fbff" font-family="Segoe UI, Arial, sans-serif" font-size="18" font-weight="700">CHANGED_FILES</text>
  <text x="78" y="710" fill="#d7e3f4" font-family="Consolas, monospace" font-size="17">src/demo_module.py, README.md</text>
  <text x="78" y="756" fill="#f8fbff" font-family="Segoe UI, Arial, sans-serif" font-size="18" font-weight="700">TIMESTAMP</text>
  <text x="78" y="782" fill="#d7e3f4" font-family="Consolas, monospace" font-size="17">2026-06-04T20:00:00Z</text>
  <text x="78" y="828" fill="#f8fbff" font-family="Segoe UI, Arial, sans-serif" font-size="18" font-weight="700">VERIFIER_RESULT</text>
  <text x="78" y="854" fill="#d7e3f4" font-family="Consolas, monospace" font-size="18">OK</text>
  <text x="78" y="900" fill="#f8fbff" font-family="Segoe UI, Arial, sans-serif" font-size="18" font-weight="700">SIGNATURE_BLOCK</text>
  <text x="78" y="926" fill="#d7e3f4" font-family="Consolas, monospace" font-size="17">demo-hmac</text>

  <rect x="540" y="160" width="500" height="700" rx="24" ry="24" fill="#101826" stroke="#2b3d59" stroke-width="2.5" />
  <text x="568" y="208" fill="#a78bfa" font-family="Segoe UI, Arial, sans-serif" font-size="24" font-weight="700">PROCESS: DETERMINISTIC CRYSTAL GENERATION</text>
  <text x="568" y="258" fill="#f8fbff" font-family="Segoe UI, Arial, sans-serif" font-size="18" font-weight="700">CANONICALIZATION</text>
  <text x="568" y="284" fill="#d7e3f4" font-family="Consolas, monospace" font-size="17">sorted keys → compact JSON → SHA-256</text>
  <text x="568" y="330" fill="#f8fbff" font-family="Segoe UI, Arial, sans-serif" font-size="18" font-weight="700">CANONICAL_RECEIPT_HASH</text>
  <text x="568" y="356" fill="#d7e3f4" font-family="Consolas, monospace" font-size="18">ed7400a760...9c7815</text>
  <text x="568" y="402" fill="#f8fbff" font-family="Segoe UI, Arial, sans-serif" font-size="18" font-weight="700">SEED DERIVATION</text>
  <text x="568" y="428" fill="#d7e3f4" font-family="Consolas, monospace" font-size="17">MASTER_SEED | SHAPE_SEED | PALETTE_SEED</text>
  <text x="568" y="454" fill="#d7e3f4" font-family="Consolas, monospace" font-size="17">SYMMETRY_SEED | LAYER_SEED | OXIDE_SEED | TRAIT_SEED</text>
  <text x="568" y="500" fill="#f8fbff" font-family="Segoe UI, Arial, sans-serif" font-size="18" font-weight="700">VISUAL TRAIT DERIVATION</text>
  <text x="568" y="526" fill="#d7e3f4" font-family="Consolas, monospace" font-size="17">geometry_style=hopper</text>
  <text x="568" y="552" fill="#d7e3f4" font-family="Consolas, monospace" font-size="17">palette_name=violet_green</text>
  <text x="568" y="578" fill="#d7e3f4" font-family="Consolas, monospace" font-size="17">symmetry=medium | layer_count=15</text>
  <text x="568" y="604" fill="#d7e3f4" font-family="Consolas, monospace" font-size="17">shard_count=12 | rarity=common</text>
  <line x1="790" y1="620" x2="790" y2="760" stroke="#35507c" stroke-width="2" stroke-dasharray="8 8" />
  <text x="568" y="792" fill="#b7c4d8" font-family="Segoe UI, Arial, sans-serif" font-size="18">receipt evidence is transformed into a reproducible bismuth / hopper crystal grammar</text>

  <rect x="1070" y="160" width="480" height="700" rx="24" ry="24" fill="#121c2b" stroke="#2b3d59" stroke-width="2.5" />
  <text x="1098" y="208" fill="#f472b6" font-family="Segoe UI, Arial, sans-serif" font-size="24" font-weight="700">OUTPUT: CRYSTAL ARTIFACT &amp; METADATA</text>
<g id="bismuth-crystal" class="hopper-crystal"><g class="isometric-block tower-block" opacity="1.000"><polygon points="1149.98,680.00 1171.50,666.78 1171.50,753.70 1149.98,766.92" fill="#56238c" stroke="#c1e2ed" stroke-width="1.82" /><polygon points="1270.02,680.00 1291.55,666.78 1291.55,753.70 1270.02,766.92" fill="#793fad" stroke="#c1e2ed" stroke-width="1.82" /><polygon points="1149.98,680.00 1270.02,680.00 1291.55,666.78 1171.50,666.78" fill="#9168bd" stroke="#c1e2ed" stroke-width="1.82" /></g><polygon class="hopper-band" points="1164.38,685.76 1255.62,685.76 1268.10,678.09 1176.86,678.09" fill="none" stroke="#a3ee95" stroke-opacity="0.443" stroke-width="1.52" /><g class="isometric-block tower-block" opacity="1.000"><polygon points="1161.99,662.63 1183.52,649.40 1183.52,721.90 1161.99,735.12" fill="#5d2993" stroke="#c1e2ed" stroke-width="1.82" /><polygon points="1258.01,662.63 1279.53,649.40 1279.53,721.90 1258.01,735.12" fill="#765ba5" stroke="#c1e2ed" stroke-width="1.82" /><polygon points="1161.99,662.63 1258.01,662.63 1279.53,649.40 1183.52,649.40" fill="#9466c3" stroke="#c1e2ed" stroke-width="1.82" /></g><polygon class="hopper-band" points="1173.52,667.23 1246.48,667.23 1258.97,659.57 1186.00,659.57" fill="none" stroke="#a3ee95" stroke-opacity="0.443" stroke-width="1.52" /><g class="isometric-block tower-block" opacity="1.000"><polygon points="1174.01,645.25 1195.54,632.03 1195.54,690.11 1174.01,703.33" fill="#5b4b8a" stroke="#c1e2ed" stroke-width="1.82" /><polygon points="1245.99,645.25 1267.51,632.03 1267.51,690.11 1245.99,703.33" fill="#6e5ca4" stroke="#c1e2ed" stroke-width="1.82" /><polygon points="1174.01,645.25 1245.99,645.25 1267.51,632.03 1195.54,632.03" fill="#9c6bcc" stroke="#c1e2ed" stroke-width="1.82" /></g><polygon class="hopper-band" points="1182.65,648.71 1237.35,648.71 1249.83,641.04 1195.13,641.04" fill="none" stroke="#a3ee95" stroke-opacity="0.443" stroke-width="1.52" /><g class="isometric-block tower-block" opacity="1.000"><polygon points="1186.03,627.88 1207.55,614.66 1207.55,658.31 1186.03,671.53" fill="#534c8b" stroke="#c1e2ed" stroke-width="1.82" /><polygon points="1233.97,627.88 1255.49,614.66 1255.49,658.31 1233.97,671.53" fill="#6d33a3" stroke="#c1e2ed" stroke-width="1.82" /><polygon points="1186.03,627.88 1233.97,627.88 1255.49,614.66 1207.55,614.66" fill="#92a3b4" stroke="#c1e2ed" stroke-width="1.82" /></g><polygon class="hopper-band" points="1192.59,630.50 1227.41,630.50 1239.89,622.83 1205.07,622.83" fill="none" stroke="#a3ee95" stroke-opacity="0.443" stroke-width="1.52" /><g class="isometric-block tower-block" opacity="1.000"><polygon points="1191.14,610.50 1212.66,597.28 1212.66,626.51 1191.14,639.73" fill="#541f8c" stroke="#c1e2ed" stroke-width="1.82" /><polygon points="1228.86,610.50 1250.38,597.28 1250.38,626.51 1228.86,639.73" fill="#7638af" stroke="#c1e2ed" stroke-width="1.82" /><polygon points="1191.14,610.50 1228.86,610.50 1250.38,597.28 1212.66,597.28" fill="#7e9cb1" stroke="#c1e2ed" stroke-width="1.82" /></g><polygon class="hopper-band" points="1197.70,613.13 1222.30,613.13 1234.78,605.46 1210.18,605.46" fill="none" stroke="#a3ee95" stroke-opacity="0.443" stroke-width="1.52" /><g class="isometric-block tower-block" opacity="1.000"><polygon points="1191.14,593.13 1212.66,579.91 1212.66,601.23 1191.14,614.45" fill="#60269a" stroke="#c1e2ed" stroke-width="1.82" /><polygon points="1228.86,593.13 1250.38,579.91 1250.38,601.23 1228.86,614.45" fill="#8343bb" stroke="#c1e2ed" stroke-width="1.82" /><polygon points="1191.14,593.13 1228.86,593.13 1250.38,579.91 1212.66,579.91" fill="#7a47af" stroke="#c1e2ed" stroke-width="1.82" /></g><polygon class="hopper-band" points="1197.70,595.75 1222.30,595.75 1234.78,588.08 1210.18,588.08" fill="none" stroke="#a3ee95" stroke-opacity="0.443" stroke-width="1.52" /><g class="isometric-block tower-block" opacity="1.000"><polygon points="1191.14,575.75 1212.66,562.53 1212.66,583.85 1191.14,597.07" fill="#7034a9" stroke="#c1e2ed" stroke-width="1.82" /><polygon points="1228.86,575.75 1250.38,562.53 1250.38,583.85 1228.86,597.07" fill="#7987a1" stroke="#c1e2ed" stroke-width="1.82" /><polygon points="1191.14,575.75 1228.86,575.75 1250.38,562.53 1212.66,562.53" fill="#894cc1" stroke="#c1e2ed" stroke-width="1.82" /></g><polygon class="hopper-band" points="1197.70,578.38 1222.30,578.38 1234.78,570.71 1210.18,570.71" fill="none" stroke="#a3ee95" stroke-opacity="0.443" stroke-width="1.52" /><g class="isometric-block tower-block" opacity="1.000"><polygon points="1191.14,558.38 1212.66,545.16 1212.66,566.48 1191.14,579.70" fill="#65778e" stroke="#c1e2ed" stroke-width="1.82" /><polygon points="1228.86,558.38 1250.38,545.16 1250.38,566.48 1228.86,579.70" fill="#6680a0" stroke="#c1e2ed" stroke-width="1.82" /><polygon points="1191.14,558.38 1228.86,558.38 1250.38,545.16 1212.66,545.16" fill="#9d5fd2" stroke="#c1e2ed" stroke-width="1.82" /></g><polygon class="hopper-band" points="1197.70,561.00 1222.30,561.00 1234.78,553.33 1210.18,553.33" fill="none" stroke="#a3ee95" stroke-opacity="0.443" stroke-width="1.52" /><g class="isometric-block side-block" opacity="0.940"><polygon points="1092.58,667.49 1110.22,656.65 1110.22,684.53 1092.58,695.37" fill="#5c4582" stroke="#c1e2ed" stroke-width="1.57" /><polygon points="1138.50,667.49 1156.14,656.65 1156.14,684.53 1138.50,695.37" fill="#4e3b6f" stroke="#c1e2ed" stroke-width="1.57" /><polygon points="1092.58,667.49 1138.50,667.49 1156.14,656.65 1110.22,656.65" fill="#8c63bc" stroke="#c1e2ed" stroke-width="1.57" /></g><g class="isometric-block side-block" opacity="0.940"><polygon points="1081.51,654.98 1099.15,644.14 1099.15,669.56 1081.51,680.40" fill="#694e92" stroke="#c1e2ed" stroke-width="1.57" /><polygon points="1123.33,654.98 1140.97,644.14 1140.97,669.56 1123.33,680.40" fill="#59427c" stroke="#c1e2ed" stroke-width="1.57" /><polygon points="1081.51,654.98 1123.33,654.98 1140.97,644.14 1099.15,644.14" fill="#a271d5" stroke="#c1e2ed" stroke-width="1.57" /></g><g class="isometric-block side-block" opacity="0.940"><polygon points="1070.44,642.47 1088.08,631.63 1088.08,654.59 1070.44,665.43" fill="#785c9e" stroke="#c1e2ed" stroke-width="1.57" /><polygon points="1108.16,642.47 1125.80,631.63 1125.80,654.59 1108.16,665.43" fill="#654e86" stroke="#c1e2ed" stroke-width="1.57" /><polygon points="1070.44,642.47 1108.16,642.47 1125.80,631.63 1088.08,631.63" fill="#b987e9" stroke="#c1e2ed" stroke-width="1.57" /></g><g class="isometric-block side-block" opacity="0.940"><polygon points="1281.50,667.49 1299.15,656.65 1299.15,684.53 1281.50,695.37" fill="#785c9e" stroke="#c1e2ed" stroke-width="1.57" /><polygon points="1327.42,667.49 1345.07,656.65 1345.07,684.53 1327.42,695.37" fill="#654e86" stroke="#c1e2ed" stroke-width="1.57" /><polygon points="1281.50,667.49 1327.42,667.49 1345.07,656.65 1299.15,656.65" fill="#b987e9" stroke="#c1e2ed" stroke-width="1.57" /></g><g class="isometric-block side-block" opacity="0.940"><polygon points="1296.67,654.98 1314.32,644.14 1314.32,669.56 1296.67,680.40" fill="#6b9d82" stroke="#c1e2ed" stroke-width="1.57" /><polygon points="1338.49,654.98 1356.14,644.14 1356.14,669.56 1338.49,680.40" fill="#5b846f" stroke="#c1e2ed" stroke-width="1.57" /><polygon points="1296.67,654.98 1338.49,654.98 1356.14,644.14 1314.32,644.14" fill="#a5f0bc" stroke="#c1e2ed" stroke-width="1.57" /></g><g class="isometric-block side-block" opacity="0.940"><polygon points="1311.84,642.47 1329.49,631.63 1329.49,654.59 1311.84,665.43" fill="#5a8f82" stroke="#c1e2ed" stroke-width="1.57" /><polygon points="1349.56,642.47 1367.21,631.63 1367.21,654.59 1349.56,665.43" fill="#4d796f" stroke="#c1e2ed" stroke-width="1.57" /><polygon points="1311.84,642.47 1349.56,642.47 1367.21,631.63 1329.49,631.63" fill="#8adabc" stroke="#c1e2ed" stroke-width="1.57" /></g></g>
  <text x="1098" y="270" fill="#f8fbff" font-family="Segoe UI, Arial, sans-serif" font-size="18" font-weight="700">METADATA SUMMARY</text>
  <text x="1098" y="300" fill="#d7e3f4" font-family="Consolas, monospace" font-size="17">canonical_receipt_hash: ed7400a760...9c7815</text>
  <text x="1098" y="330" fill="#d7e3f4" font-family="Consolas, monospace" font-size="17">visual_traits: hopper / violet_green / common</text>
  <text x="1098" y="360" fill="#d7e3f4" font-family="Consolas, monospace" font-size="17">ACTION_GROWTH_MAP: semantic evidence → mutation map</text>
  <text x="1098" y="390" fill="#d7e3f4" font-family="Consolas, monospace" font-size="16">changed_files->terraces | verifier_result->seal/glow | scope/authority->boundary | diff/eventRoot->growth pattern</text>
  <text x="1098" y="420" fill="#d7e3f4" font-family="Consolas, monospace" font-size="17">receipt_card file: receipt-card.svg</text>
  <text x="1098" y="450" fill="#d7e3f4" font-family="Consolas, monospace" font-size="17">provenance: deterministic / reproducible / shareable</text>
  <text x="1098" y="760" fill="#f8fbff" font-family="Segoe UI, Arial, sans-serif" font-size="18" font-weight="700">CRYSTAL PREVIEW</text>
  <text x="1098" y="790" fill="#d7e3f4" font-family="Consolas, monospace" font-size="17">crystal.svg | crystal.metadata.json | receipt-card.svg</text>
  <text x="1098" y="820" fill="#d7e3f4" font-family="Consolas, monospace" font-size="17">artifact hash: 7576fff461...b0e723</text>

  <rect x="50" y="890" width="1500" height="70" rx="18" ry="18" fill="#121212" stroke="#334155" stroke-width="2.5" />
  <text x="78" y="922" fill="#fef08a" font-family="Segoe UI, Arial, sans-serif" font-size="20" font-weight="700">IMPORTANT BOUNDARY:</text>
  <text x="78" y="948" fill="#f8fbff" font-family="Segoe UI, Arial, sans-serif" font-size="20">Visual artifact, not verifier. The crystal is not the security verifier. Verification must be performed by an independent verifier.</text>
</svg>
