<svg xmlns="http://www.w3.org/2000/svg" width="1200" height="1200" viewBox="0 0 1200 1200">

  <defs>
    <radialGradient id="bg" cx="50%" cy="45%" r="70%">
      <stop offset="0%" stop-color="#10131a" />
      <stop offset="100%" stop-color="#030507" />
    </radialGradient>
    <filter id="glow">
      <feGaussianBlur stdDeviation="6" result="blur" />
      <feMerge>
        <feMergeNode in="blur" />
        <feMergeNode in="SourceGraphic" />
      </feMerge>
    </filter>
  </defs>
  <rect width="100%" height="100%" fill="url(#bg)" />
  <g filter="url(#glow)">
  <polygon points="810.98,951.54 351.49,932.9 140.51,581.36 389.02,248.46 848.51,267.1 1059.49,618.64" fill="#9d4edd" fill-opacity="0.65" stroke="#ffffff" stroke-opacity="0.18" stroke-width="1.5" />
  <polygon points="588.73,805.48 387.44,694.35 398.71,488.87 611.27,394.52 812.56,505.65 801.29,711.13" fill="#02060a" fill-opacity="0.293" stroke="#9d4edd" stroke-opacity="0.35" stroke-width="1" />
  <line x1="810.98" y1="951.54" x2="387.44" y2="694.35" stroke="#9d4edd" stroke-opacity="0.35" stroke-width="1.2" />
  <polygon points="827.54,908.7 402.9,923.82 175.36,615.11 372.46,291.3 797.1,276.18 1024.64,584.89" fill="#7b2cbf" fill-opacity="0.609" stroke="#ffffff" stroke-opacity="0.18" stroke-width="2.0" />
  <polygon points="609.14,789.9 413.34,701.76 404.2,511.86 590.86,410.1 786.66,498.24 795.8,688.14" fill="#02060a" fill-opacity="0.274" stroke="#7b2cbf" stroke-opacity="0.35" stroke-width="1" />
  <line x1="402.9" y1="923.82" x2="404.2" y2="511.86" stroke="#7b2cbf" stroke-opacity="0.35" stroke-width="1.2" />
  <polygon points="737.41,913.89 352.61,859.29 215.2,545.39 462.59,286.11 847.39,340.71 984.8,654.61" fill="#5a189a" fill-opacity="0.568" stroke="#ffffff" stroke-opacity="0.18" stroke-width="2.5" />
  <polygon points="566.98,772.08 410.2,661.45 443.22,489.37 633.02,427.92 789.8,538.55 756.78,710.63" fill="#02060a" fill-opacity="0.256" stroke="#5a189a" stroke-opacity="0.35" stroke-width="1" />
  <line x1="215.2" y1="545.39" x2="633.02" y2="427.92" stroke="#5a189a" stroke-opacity="0.35" stroke-width="1.2" />
  <polygon points="669.2,899.44 333.06,801.26 263.86,501.81 530.8,300.56 866.94,398.74 936.14,698.19" fill="#3c096c" fill-opacity="0.527" stroke="#ffffff" stroke-opacity="0.18" stroke-width="1.5" />
  <polygon points="540.63,750.32 418.94,630.94 478.31,480.62 659.37,449.68 781.06,569.06 721.69,719.38" fill="#02060a" fill-opacity="0.237" stroke="#3c096c" stroke-opacity="0.35" stroke-width="1" />
  <line x1="530.8" y1="300.56" x2="781.06" y2="569.06" stroke="#3c096c" stroke-opacity="0.35" stroke-width="1.2" />
  <polygon points="573.0,874.22 310.36,717.0 337.36,442.78 627.0,325.78 889.64,483.0 862.64,757.22" fill="#240046" fill-opacity="0.486" stroke="#ffffff" stroke-opacity="0.18" stroke-width="2.0" />
  <polygon points="504.94,717.45 434.19,587.93 529.26,470.47 695.06,482.55 765.81,612.07 670.74,729.53" fill="#02060a" fill-opacity="0.219" stroke="#240046" stroke-opacity="0.35" stroke-width="1" />
  <line x1="889.64" y1="483.0" x2="670.74" y2="729.53" stroke="#240046" stroke-opacity="0.35" stroke-width="1.2" />
  <polygon points="566.7,843.42 338.22,696.91 371.52,453.49 633.3,356.58 861.78,503.09 828.48,746.51" fill="#9d4edd" fill-opacity="0.445" stroke="#ffffff" stroke-opacity="0.18" stroke-width="2.5" />
  <polygon points="511.41,702.17 452.82,585.11 541.4,482.93 688.59,497.83 747.18,614.89 658.6,717.07" fill="#02060a" fill-opacity="0.2" stroke="#9d4edd" stroke-opacity="0.35" stroke-width="1" />
  <line x1="828.48" y1="746.51" x2="511.41" y2="702.17" stroke="#9d4edd" stroke-opacity="0.35" stroke-width="1.2" />
  <polygon points="466.89,781.99 350.18,591.86 483.29,409.87 733.11,418.01 849.82,608.14 716.71,790.13" fill="#7b2cbf" fill-opacity="0.405" stroke="#ffffff" stroke-opacity="0.18" stroke-width="1.5" />
  <polygon points="485.04,652.19 489.96,540.47 604.92,488.28 714.96,547.81 710.04,659.53 595.08,711.72" fill="#02060a" fill-opacity="0.182" stroke="#7b2cbf" stroke-opacity="0.35" stroke-width="1" />
  <line x1="466.89" y1="781.99" x2="489.96" y2="540.47" stroke="#7b2cbf" stroke-opacity="0.35" stroke-width="1.2" />
  <polygon points="489.27,758.49 385.03,596.77 495.77,438.28 710.73,441.51 814.97,603.23 704.23,761.72" fill="#5a189a" fill-opacity="0.364" stroke="#ffffff" stroke-opacity="0.18" stroke-width="2.0" />
  <polygon points="502.22,646.61 504.17,550.48 601.95,503.87 697.78,553.39 695.83,649.52 598.05,696.13" fill="#02060a" fill-opacity="0.164" stroke="#5a189a" stroke-opacity="0.35" stroke-width="1" />
  <line x1="385.03" y1="596.77" x2="601.95" y2="503.87" stroke="#5a189a" stroke-opacity="0.35" stroke-width="1.2" />
  <polygon points="493.94,725.08 421.02,583.55 527.07,458.47 706.06,474.92 778.98,616.45 672.93,741.53" fill="#3c096c" fill-opacity="0.323" stroke="#ffffff" stroke-opacity="0.18" stroke-width="2.5" />
  <polygon points="514.43,632.61 524.37,552.57 609.95,519.96 685.57,567.39 675.63,647.43 590.05,680.04" fill="#02060a" fill-opacity="0.145" stroke="#3c096c" stroke-opacity="0.35" stroke-width="1" />
  <line x1="527.07" y1="458.47" x2="685.57" y2="567.39" stroke="#3c096c" stroke-opacity="0.35" stroke-width="1.2" />
  <polygon points="484.23,675.08 466.51,551.32 582.28,476.23 715.77,524.92 733.49,648.68 617.72,723.77" fill="#240046" fill-opacity="0.282" stroke="#ffffff" stroke-opacity="0.18" stroke-width="1.5" />
  <polygon points="525.17,607.92 554.6,548.23 629.44,540.3 674.83,592.08 645.4,651.77 570.56,659.7" fill="#02060a" fill-opacity="0.127" stroke="#240046" stroke-opacity="0.35" stroke-width="1" />
  <line x1="715.77" y1="524.92" x2="645.4" y2="651.77" stroke="#240046" stroke-opacity="0.35" stroke-width="1.2" />
  <polygon points="530.57,673.37 491.4,584.97 560.83,511.6 669.43,526.63 708.6,615.03 639.17,688.4" fill="#9d4edd" fill-opacity="0.241" stroke="#ffffff" stroke-opacity="0.18" stroke-width="2.0" />
  <polygon points="546.55,617.52 555.64,568.95 609.09,551.43 653.45,582.48 644.36,631.05 590.91,648.57" fill="#02060a" fill-opacity="0.108" stroke="#9d4edd" stroke-opacity="0.35" stroke-width="1" />
  </g>
  <text x="600.0" y="1140" text-anchor="middle" fill="#b7c0cc" font-family="monospace" font-size="20">seed:14788835168163119592</text>
</svg>
