<svg xmlns="http://www.w3.org/2000/svg" width="900" height="3180" viewBox="0 0 900 3180" role="img" aria-labelledby="title desc">
  <title id="title">Crystal Receipt Mobile Flow Diagram</title>
  <desc id="desc">A vertical black and white scientific style diagram showing the Crystal Receipt proof-first pipeline from agent action to portable evidence, receipt root, Merkle proof, anchor reference, verifier, Evidence Capsule, replay manifest, and an optional crystal surface.</desc>
  <defs>
    <marker id="arrow" markerWidth="12" markerHeight="12" refX="10" refY="6" orient="auto">
      <path d="M0,0 L12,6 L0,12 z" fill="#111111"/>
    </marker>
    <style>
      .bg { fill: #ffffff; }
      .box { fill: #ffffff; stroke: #111111; stroke-width: 3; }
      .boxThin { fill: #ffffff; stroke: #111111; stroke-width: 2; }
      .arrow { stroke: #111111; stroke-width: 4; fill: none; marker-end: url(#arrow); }
      .title { font: 700 34px Inter, Segoe UI, Arial, sans-serif; fill: #111111; }
      .subtitle { font: 500 22px Inter, Segoe UI, Arial, sans-serif; fill: #333333; }
      .section { font: 700 30px Inter, Segoe UI, Arial, sans-serif; fill: #111111; }
      .body { font: 500 24px Inter, Segoe UI, Arial, sans-serif; fill: #222222; }
      .mono { font: 600 21px ui-monospace, SFMono-Regular, Consolas, monospace; fill: #111111; }
      .note { font: 700 23px Inter, Segoe UI, Arial, sans-serif; fill: #111111; }
    </style>
  </defs>

  <rect class="bg" width="900" height="3180"/>

  <text x="450" y="72" text-anchor="middle" class="title">CRYSTAL RECEIPT</text>
  <text x="450" y="112" text-anchor="middle" class="subtitle">Portable receipts, proof verification, Evidence Capsule, optional visual surface</text>

  <rect x="90" y="160" width="720" height="290" rx="22" ry="22" class="box"/>
  <text x="130" y="215" class="section">1. Agent Action</text>
  <text x="130" y="275" class="body">A tool call, file change, signed decision, or scoped operation occurs.</text>
  <text x="130" y="325" class="mono">task / prompt</text>
  <text x="130" y="365" class="mono">commands / execution</text>
  <text x="470" y="325" class="mono">scope / authority</text>
  <text x="470" y="365" class="mono">result / side effects</text>

  <path d="M450 450 V520" class="arrow"/>

  <rect x="90" y="540" width="720" height="360" rx="22" ry="22" class="box"/>
  <text x="130" y="595" class="section">2. Portable Evidence</text>
  <text x="130" y="655" class="body">The action becomes portable receipt evidence.</text>
  <text x="130" y="715" class="mono">session_id</text>
  <text x="130" y="755" class="mono">task / prompt context</text>
  <text x="130" y="795" class="mono">execution records</text>
  <text x="130" y="835" class="mono">commands</text>
  <text x="470" y="715" class="mono">changed files</text>
  <text x="470" y="755" class="mono">diff_sha256</text>
  <text x="470" y="795" class="mono">authorization state</text>
  <text x="470" y="835" class="mono">metadata</text>

  <path d="M450 900 V970" class="arrow"/>

  <rect x="120" y="990" width="660" height="230" rx="22" ry="22" class="box"/>
  <text x="160" y="1045" class="section">3. Receipt Root</text>
  <text x="160" y="1105" class="body">Canonical evidence is recomputed into a deterministic root.</text>
  <text x="160" y="1165" class="mono">canonical JSON</text>
  <text x="160" y="1205" class="mono">receipt_root</text>

  <path d="M450 1220 V1290" class="arrow"/>

  <rect x="120" y="1310" width="660" height="260" rx="22" ry="22" class="box"/>
  <text x="160" y="1365" class="section">4. Merkle Proof</text>
  <text x="160" y="1425" class="body">A local proof can bind the receipt root into an anchor path.</text>
  <text x="160" y="1485" class="mono">merkle_root</text>
  <text x="160" y="1525" class="mono">merkle_leaf_index</text>
  <text x="470" y="1485" class="mono">merkle_proof</text>
  <text x="470" y="1525" class="mono">proof_status</text>

  <path d="M450 1570 V1640" class="arrow"/>

  <rect x="120" y="1660" width="660" height="260" rx="22" ry="22" class="box"/>
  <text x="160" y="1715" class="section">5. Anchor Reference</text>
  <text x="160" y="1775" class="body">Optional external anchor references can point to committed proof state.</text>
  <text x="160" y="1835" class="mono">network</text>
  <text x="160" y="1875" class="mono">contract</text>
  <text x="470" y="1835" class="mono">tx_hash</text>
  <text x="470" y="1875" class="mono">proof reference</text>

  <path d="M450 1920 V1990" class="arrow"/>

  <rect x="120" y="2010" width="660" height="230" rx="22" ry="22" class="box"/>
  <text x="160" y="2065" class="section">6. Verifier</text>
  <text x="160" y="2125" class="body">The verifier recomputes and checks anchored facts.</text>
  <text x="160" y="2185" class="mono">receipt_root check</text>
  <text x="470" y="2185" class="mono">Merkle / anchor check</text>

  <path d="M450 2240 V2310" class="arrow"/>

  <rect x="90" y="2330" width="720" height="320" rx="22" ry="22" class="box"/>
  <text x="130" y="2385" class="section">7. Evidence Capsule</text>
  <text x="130" y="2445" class="body">The proof state becomes a non-breaking interpretive capsule.</text>
  <text x="130" y="2505" class="mono">payload</text>
  <text x="130" y="2545" class="mono">authorization</text>
  <text x="130" y="2585" class="mono">decision_trace</text>
  <text x="470" y="2505" class="mono">evidence</text>
  <text x="470" y="2545" class="mono">counterfactual</text>
  <text x="470" y="2585" class="mono">verifier</text>

  <path d="M450 2650 V2720" class="arrow"/>

  <rect x="120" y="2740" width="660" height="220" rx="22" ry="22" class="box"/>
  <text x="160" y="2795" class="section">8. Replay Manifest</text>
  <text x="160" y="2855" class="body">Replay-relevant inputs are made inspectable and portable.</text>
  <text x="160" y="2915" class="mono">session / task / commands / diff / roots</text>

  <path d="M450 2960 V3030" class="arrow"/>

  <rect x="90" y="3050" width="720" height="260" rx="22" ry="22" class="box"/>
  <text x="130" y="3105" class="section">9. Optional Crystal Surface</text>
  <text x="130" y="3165" class="body">A deterministic crystal artifact can render the verified receipt as a secondary visual layer.</text>

  <rect x="620" y="3110" width="120" height="120" fill="#ffffff" stroke="#111111" stroke-width="3"/>
  <rect x="645" y="3135" width="70" height="70" fill="#ffffff" stroke="#111111" stroke-width="2.3"/>
  <rect x="665" y="3155" width="30" height="30" fill="#ffffff" stroke="#111111" stroke-width="2"/>

  <rect x="90" y="3340" width="720" height="190" rx="22" ry="22" class="box"/>
  <text x="130" y="3400" class="note">- proof first, visual second</text>
  <text x="130" y="3450" class="note">- same evidence -&gt; same verified capsule / optional artifact</text>
  <text x="130" y="3500" class="note">- verifier is the source of truth</text>
</svg>
